<?xml version="1.0" standalone="no"?>
<!DOCTYPE svg PUBLIC "-//W3C//DTD SVG 20010904//EN"
 "http://www.w3.org/TR/2001/REC-SVG-20010904/DTD/svg10.dtd">
<svg version="1.0" xmlns="http://www.w3.org/2000/svg"
 width="720.000000pt" height="1280.000000pt" viewBox="0 0 720.000000 1280.000000"
 preserveAspectRatio="xMidYMid meet">

<g transform="translate(0.000000,1280.000000) scale(0.100000,-0.100000)"
fill="#000000" stroke="none">
<path d="M3285 11790 c-3 -5 -4 -14 0 -19 3 -5 1 -12 -5 -16 -5 -3 -10 2 -10
12 0 12 -3 14 -8 6 -4 -6 -20 -15 -36 -19 -23 -5 -27 -4 -22 7 4 8 1 6 -7 -3
-8 -10 -30 -19 -51 -20 -20 -2 -36 -8 -36 -14 0 -14 -23 -24 -56 -24 -14 0
-24 -6 -24 -14 0 -9 -7 -12 -20 -9 -12 3 -20 0 -20 -7 0 -7 -7 -10 -16 -6 -8
3 -12 2 -9 -4 9 -14 -17 -50 -37 -50 -9 0 -18 3 -21 8 -2 4 -2 2 -1 -5 2 -8
-6 -11 -25 -7 -23 5 -29 2 -34 -15 -4 -18 -11 -20 -62 -17 -56 4 -154 -25
-163 -46 -2 -5 -8 -5 -14 -2 -5 3 -15 -1 -21 -11 -7 -9 -20 -17 -29 -19 -18
-2 -58 -43 -58 -58 0 -4 -5 -8 -12 -8 -18 0 -98 -41 -98 -50 0 -5 -9 -11 -20
-15 -11 -3 -32 -19 -47 -36 -15 -16 -35 -29 -44 -29 -9 0 -22 -7 -29 -15 -6
-8 -21 -17 -33 -21 -12 -4 -32 -20 -46 -35 -14 -16 -30 -29 -36 -29 -6 0 -30
-14 -53 -31 -23 -17 -42 -27 -42 -23 0 4 -6 0 -13 -11 -8 -10 -19 -15 -24 -12
-6 4 -13 1 -16 -7 -3 -7 -27 -24 -54 -37 -26 -12 -63 -37 -81 -53 -34 -33
-109 -80 -153 -97 -15 -6 -30 -18 -33 -27 -8 -24 -26 -49 -68 -96 -21 -23 -38
-47 -38 -53 0 -7 -4 -13 -10 -13 -5 0 -10 -5 -10 -11 0 -6 -7 -17 -16 -26 -8
-9 -13 -22 -10 -30 3 -8 2 -11 -3 -8 -5 3 -13 -5 -16 -17 -8 -23 -86 -140
-110 -165 -8 -8 -18 -26 -22 -41 -3 -15 -15 -40 -25 -57 -10 -16 -20 -37 -24
-45 -3 -8 -12 -28 -20 -45 -7 -16 -17 -46 -20 -65 -4 -19 -10 -39 -15 -45 -6
-9 -26 -78 -60 -215 -6 -25 -15 -54 -20 -65 -18 -41 -33 -80 -34 -90 -5 -45
-18 -85 -25 -80 -6 4 -9 -2 -8 -12 3 -40 -3 -84 -11 -79 -8 5 -24 -104 -16
-113 3 -2 9 7 14 20 5 13 10 18 10 11 2 -25 -20 -54 -35 -48 -13 5 -15 -6 -13
-68 2 -48 -1 -79 -9 -89 -8 -10 -10 -30 -6 -58 4 -35 3 -41 -6 -29 -10 13 -11
12 -6 -3 3 -11 -2 -32 -11 -48 -14 -23 -15 -32 -5 -38 12 -7 24 -151 12 -151
-3 0 -6 -11 -6 -25 -1 -15 4 -25 11 -25 15 0 8 -41 -9 -52 -8 -5 -8 -8 0 -8 6
0 10 -23 9 -57 0 -60 -10 -87 -26 -78 -11 8 -12 -5 0 -23 6 -11 11 -10 25 3
16 16 46 15 46 -2 -1 -28 -48 -55 -73 -42 -14 9 -16 6 -11 -21 4 -17 2 -36 -5
-43 -6 -8 -8 -16 -5 -19 3 -3 -6 -17 -20 -31 -14 -15 -26 -33 -26 -40 0 -8
-12 -55 -26 -103 -14 -49 -27 -96 -28 -104 -6 -45 -19 -91 -28 -96 -5 -3 -4
-12 4 -21 7 -9 12 -18 11 -20 -11 -15 0 -42 19 -46 20 -4 19 -4 -4 -6 -16 0
-28 4 -28 11 0 6 -7 3 -15 -8 -11 -14 -14 -15 -15 -4 0 13 -2 13 -9 1 -7 -10
-4 -19 7 -27 13 -10 14 -15 5 -25 -7 -7 -9 -19 -3 -34 9 -23 4 -35 -12 -35 -4
0 -8 9 -8 21 0 12 -4 17 -11 13 -6 -3 -8 -18 -5 -33 3 -14 3 -20 0 -13 -9 19
-24 14 -24 -9 0 -11 4 -18 9 -14 12 7 23 -28 15 -49 -4 -11 -1 -16 11 -16 9 0
13 -4 10 -10 -3 -5 -15 -10 -25 -10 -13 0 -17 -5 -14 -15 4 -8 3 -23 -1 -32
-10 -22 -12 -34 -21 -105 -4 -37 -12 -58 -19 -58 -13 0 -15 -20 -15 -165 0
-27 4 -72 10 -100 10 -54 8 -214 -4 -257 -4 -14 -3 -34 2 -45 6 -11 7 -39 1
-72 -5 -31 -4 -61 1 -71 12 -22 1 -62 -14 -53 -6 4 -5 -1 3 -10 7 -9 17 -15
21 -12 12 8 20 -22 19 -73 l-1 -47 -10 47 c-6 26 -16 49 -24 52 -15 6 -19 -6
-7 -18 9 -9 10 -39 2 -46 -11 -8 -22 -53 -12 -47 11 7 11 -33 -1 -51 -5 -9 0
-25 15 -45 12 -17 23 -46 23 -63 1 -18 4 -30 8 -28 7 5 2 -42 -8 -73 -2 -7
-13 -13 -24 -13 -23 0 -26 -10 -8 -28 10 -10 5 -19 -20 -42 -18 -16 -32 -33
-32 -37 0 -5 -6 -15 -12 -22 -12 -11 -16 -58 -16 -208 -1 -38 -5 -63 -11 -63
-6 0 -11 -11 -11 -25 0 -14 -3 -25 -7 -25 -5 0 -9 -17 -10 -37 -1 -21 -7 -39
-12 -41 -6 -2 -11 -9 -11 -16 0 -7 -9 -21 -20 -31 -11 -10 -20 -26 -20 -36 0
-10 -6 -22 -14 -26 -14 -8 -19 -30 -17 -66 0 -10 6 -15 11 -12 6 3 10 2 10 -4
0 -5 6 -16 13 -23 8 -7 17 -26 21 -41 6 -24 3 -30 -14 -34 -21 -6 -26 -18 -12
-27 5 -3 7 -19 4 -36 -3 -22 1 -35 14 -45 18 -13 18 -14 2 -20 -10 -4 -55 -5
-101 -4 -63 3 -88 8 -101 22 -18 18 -56 24 -56 8 0 -4 -18 -5 -39 -1 -41 7
-60 -7 -44 -32 4 -8 -10 -9 -45 -5 -47 5 -71 -4 -39 -16 19 -7 -33 -48 -54
-42 -9 3 -20 1 -24 -5 -3 -5 -15 -10 -26 -10 -19 0 -19 -35 -19 -2750 l0
-2750 3600 0 3600 0 0 2551 0 2551 -27 -5 c-27 -5 -70 5 -113 27 -14 8 -31 11
-37 9 -7 -3 -13 0 -13 6 0 6 14 11 31 11 45 0 65 24 52 63 -6 18 -14 54 -18
81 -6 42 -4 48 9 43 9 -4 16 -2 16 3 0 6 -5 10 -11 10 -5 0 -8 4 -4 9 3 5 -1
16 -9 23 -7 8 -14 33 -14 56 0 23 -3 46 -7 52 -8 13 -9 152 -1 181 6 18 5 20
-3 9 -5 -8 -13 -12 -16 -8 -3 3 0 12 8 20 9 8 14 37 15 76 1 79 20 221 34 248
7 15 7 28 -1 42 -6 11 -11 36 -11 54 0 46 -39 135 -62 141 -13 4 -18 15 -18
42 0 21 -4 34 -10 30 -5 -3 -10 0 -10 8 0 8 -7 20 -16 28 -9 7 -23 30 -31 51
-8 21 -19 38 -24 38 -5 0 -9 7 -9 15 0 8 -4 15 -8 15 -5 0 -28 21 -53 46 -24
25 -66 67 -92 93 -36 36 -47 54 -47 77 2 55 -9 127 -19 133 -5 4 -13 26 -17
49 -5 31 -11 42 -21 38 -10 -4 -11 -1 -3 14 7 12 7 21 0 25 -5 3 -10 12 -10
18 0 7 4 6 10 -3 8 -12 10 -12 10 -1 0 7 -9 22 -20 31 -16 14 -17 19 -7 23 9
3 12 16 9 36 -2 17 -8 28 -13 25 -5 -3 -9 13 -9 35 0 23 -4 41 -9 41 -5 0 -12
15 -16 33 -22 91 -25 129 -10 163 7 18 11 34 9 37 -2 2 -5 31 -6 65 -1 34 -5
59 -8 57 -4 -3 -6 18 -5 45 1 28 -1 53 -6 56 -5 3 -9 11 -9 17 0 7 4 6 11 -3
8 -11 9 -7 6 20 -3 23 1 38 11 46 13 9 13 19 0 85 -8 41 -13 78 -10 84 7 11 8
6 17 -58 6 -46 25 -60 20 -15 -1 13 -3 36 -4 51 -1 20 -7 31 -21 34 -11 3 -20
10 -20 15 0 6 7 8 15 4 8 -3 15 -1 15 4 0 6 -4 10 -9 10 -12 0 -32 84 -35 147
-1 27 -6 55 -10 61 -4 7 -9 54 -11 103 -2 50 -9 97 -16 105 -6 7 -12 40 -13
71 -1 32 -7 67 -12 78 -6 11 -10 32 -9 48 0 15 -2 27 -7 27 -4 0 -7 12 -7 28
2 49 -14 177 -22 182 -4 3 2 39 13 80 16 59 18 81 10 103 -6 16 -8 35 -5 44 4
11 2 14 -8 11 -10 -4 -13 -18 -11 -51 2 -27 -1 -47 -6 -47 -10 0 -23 55 -27
115 -2 30 -5 38 -44 129 -16 36 -21 67 -20 115 1 36 -1 84 -4 106 -3 22 -6 63
-7 90 0 42 -2 47 -12 30 -10 -16 -14 -7 -29 65 -21 99 -23 124 -9 115 6 -3 10
0 10 7 0 9 3 9 10 -2 8 -13 10 -12 10 3 0 9 -5 17 -10 17 -7 0 -8 13 -4 36 4
20 3 39 -2 43 -27 19 -44 72 -41 123 3 29 2 47 0 41 -6 -18 -23 -16 -23 2 0 8
-4 15 -10 15 -5 0 -10 13 -10 30 0 16 -6 33 -13 37 -17 10 -30 43 -17 43 5 0
19 -22 32 -50 22 -48 38 -64 38 -37 0 16 -48 115 -70 143 -11 14 -15 39 -14
78 1 31 -3 59 -7 62 -5 3 -7 10 -4 15 4 5 -3 9 -14 9 -13 0 -27 15 -44 50 -14
28 -20 51 -14 53 6 2 6 11 -2 25 -7 12 -9 27 -6 32 3 6 2 10 -4 10 -13 0 -61
47 -84 83 -11 18 -24 26 -33 23 -8 -3 -17 1 -19 9 -3 8 -8 23 -12 33 -9 25
-10 30 -12 53 -1 15 -6 19 -17 15 -13 -5 -15 -1 -12 24 3 18 -1 35 -9 41 -10
9 -13 6 -13 -17 0 -26 -1 -26 -13 -9 -8 10 -18 15 -23 12 -6 -3 -9 10 -7 31 2
29 1 33 -6 17 -8 -17 -10 -18 -10 -2 -1 9 -5 17 -10 17 -8 0 -88 76 -117 111
-20 24 -51 47 -71 51 -10 2 -17 10 -15 16 1 7 -1 11 -5 11 -34 -5 -46 15 -14
24 19 5 51 -9 63 -27 5 -6 8 -3 7 9 0 12 -14 29 -34 42 l-35 22 -1 -22 c-1
-22 -1 -22 -7 1 -4 13 -10 23 -14 23 -11 0 -68 56 -68 67 0 5 -13 15 -28 21
-15 7 -40 23 -55 36 -14 14 -29 25 -32 25 -3 0 -16 11 -29 25 -13 14 -30 25
-39 25 -8 0 -17 7 -21 15 -3 8 -13 15 -21 15 -9 0 -13 5 -10 10 3 6 0 10 -9
10 -8 0 -17 6 -19 13 -4 9 -6 9 -6 -1 -1 -7 -5 -10 -11 -7 -5 3 -10 1 -10 -6
0 -10 -3 -10 -12 0 -10 11 -10 14 0 18 28 11 8 19 -45 19 -78 0 -143 39 -143
84 0 17 -5 30 -11 30 -7 0 -9 -10 -6 -26 3 -19 1 -24 -10 -20 -8 3 -17 6 -19
6 -3 0 -14 19 -24 43 -11 23 -17 31 -14 18 4 -16 3 -21 -5 -17 -6 4 -11 13
-11 21 0 20 -110 33 -124 14 -14 -18 -76 -21 -76 -3 0 7 -16 16 -35 20 -23 4
-35 12 -35 22 0 12 -3 13 -11 5 -14 -14 -80 -6 -94 11 -16 19 -111 47 -170 49
-32 2 -62 10 -72 19 -10 8 -34 24 -53 33 -19 10 -45 28 -58 40 -12 13 -35 26
-50 30 -15 3 -45 15 -67 25 -36 17 -72 31 -85 35 -3 0 -19 9 -37 18 -36 19
-63 22 -63 6 0 -5 -4 -8 -9 -4 -6 3 -14 -2 -19 -11 -7 -13 -23 -15 -80 -12
-51 2 -73 0 -77 -9 -7 -19 -35 -16 -85 8 -24 12 -65 23 -90 24 -25 1 -71 6
-102 10 -53 7 -58 6 -59 -11 0 -18 -1 -18 -9 1 -5 11 -9 14 -9 6 -1 -10 -4
-11 -15 -2 -10 8 -16 9 -21 1z m-575 -295 c0 -8 -4 -15 -10 -15 -5 0 -10 7
-10 15 0 8 5 15 10 15 6 0 10 -7 10 -15z m-990 -755 c0 -5 -5 -10 -11 -10 -5
0 -7 5 -4 10 3 6 8 10 11 10 2 0 4 -4 4 -10z m2470 -14 c0 -3 -4 -8 -10 -11
-5 -3 -10 -1 -10 4 0 6 5 11 10 11 6 0 10 -2 10 -4z m-2492 -46 c-7 -10 -14
-17 -17 -15 -4 4 18 35 25 35 2 0 -1 -9 -8 -20z m2417 10 c3 -5 1 -10 -4 -10
-6 0 -11 5 -11 10 0 6 2 10 4 10 3 0 8 -4 11 -10z m76 -18 c9 16 11 16 30 -3
11 -11 17 -24 14 -29 -4 -6 5 -10 19 -10 21 0 26 5 26 25 0 14 5 25 10 25 6 0
10 -9 10 -20 0 -14 5 -18 18 -13 9 4 20 11 24 17 5 7 8 5 8 -6 0 -9 -5 -18
-10 -20 -7 -2 -4 -11 5 -23 16 -20 16 -19 9 4 -5 19 -3 23 9 18 12 -4 15 -1
11 11 -4 13 -1 12 13 -4 18 -20 20 -20 30 -5 9 12 11 7 8 -26 -1 -24 1 -43 6
-43 4 0 14 -3 23 -6 12 -5 16 0 16 17 0 18 3 20 9 10 5 -7 14 -10 21 -6 9 6 9
3 1 -14 -10 -18 -9 -21 8 -21 24 0 43 -30 32 -49 -5 -7 -11 -12 -15 -12 -3 1
-5 -2 -3 -6 1 -5 6 -7 11 -5 5 2 6 -3 4 -10 -15 -38 -18 -58 -11 -58 4 0 9
-13 10 -30 2 -21 -2 -28 -12 -24 -9 4 -16 -4 -21 -23 -4 -15 -12 -34 -18 -42
-6 -7 -16 -27 -22 -45 -7 -17 -24 -62 -39 -101 -14 -38 -31 -74 -36 -79 -5 -6
-9 -15 -9 -22 0 -7 -16 -36 -36 -65 -20 -30 -47 -79 -61 -109 -13 -30 -27 -57
-31 -60 -14 -9 -42 -54 -42 -67 0 -20 32 -3 75 41 22 23 52 49 67 58 22 15 27
15 32 3 3 -8 2 -15 -3 -15 -4 0 -25 -26 -47 -57 -21 -32 -43 -61 -48 -64 -4
-4 -7 -11 -5 -17 6 -15 70 10 83 32 6 11 19 29 29 40 22 24 41 66 38 82 0 6 6
17 14 24 8 7 15 21 15 32 0 10 4 16 10 13 5 -3 7 0 4 8 -3 8 -1 18 5 22 6 3
11 17 11 30 0 13 4 26 9 30 5 3 15 22 22 43 6 20 15 39 20 42 4 3 9 26 11 52
2 25 9 52 14 60 6 7 17 38 24 70 9 40 17 55 26 51 8 -3 14 -11 14 -18 0 -7 6
-15 13 -18 10 -4 12 3 9 24 -2 16 -8 26 -13 23 -17 -10 -20 24 -6 72 l14 49 7
-49 c5 -30 11 -45 17 -39 6 6 5 21 -2 41 -6 17 -9 37 -6 44 3 7 6 2 7 -12 1
-23 2 -24 11 -5 8 17 9 16 6 -7 -3 -16 0 -28 4 -28 5 0 9 6 9 13 0 8 3 8 9 -2
8 -12 10 -12 13 0 4 11 5 10 4 -1 -1 -8 -6 -15 -13 -15 -6 0 -15 -3 -19 -7 -4
-5 -2 -8 4 -8 7 0 12 -10 13 -22 0 -22 1 -22 9 -3 7 17 9 16 10 -10 1 -16 4
-22 7 -13 2 9 14 23 26 31 22 14 22 13 25 -44 2 -43 0 -59 -10 -59 -7 0 -4 -6
7 -12 19 -11 19 -11 0 -19 -19 -6 -18 -8 5 -17 19 -8 20 -11 7 -11 -10 -1 -15
-6 -12 -11 4 -6 10 -8 14 -6 4 3 13 1 21 -5 12 -7 10 -9 -7 -9 -16 0 -23 -6
-23 -21 0 -11 4 -18 9 -15 5 4 7 -4 4 -16 -4 -19 -3 -20 6 -8 9 12 11 11 11
-7 0 -14 -6 -23 -15 -23 -8 0 -15 -4 -15 -9 0 -5 9 -7 19 -4 17 4 19 0 16 -46
-2 -39 1 -53 13 -61 11 -6 13 -9 4 -10 -9 0 -11 -7 -7 -20 4 -11 2 -20 -4 -20
-14 0 -14 -27 0 -32 6 -2 13 -24 16 -48 6 -54 13 -65 13 -22 0 18 5 32 10 32
6 0 10 -3 10 -7 0 -5 3 -19 5 -33 5 -22 4 -22 -4 -5 -7 15 -9 2 -8 -45 0 -64
0 -64 12 -30 l12 35 8 -40 c4 -22 11 -45 15 -50 5 -6 10 -24 12 -40 3 -17 11
-43 19 -59 11 -23 11 -30 1 -34 -6 -2 -12 -12 -12 -23 0 -28 -17 -23 -35 11
-17 33 -35 40 -35 13 0 -15 2 -16 10 -3 6 9 10 10 10 3 0 -23 -20 -24 -29 -1
l-10 23 0 -22 c-1 -23 -31 -34 -31 -11 0 9 -3 9 -12 0 -7 -7 -29 -12 -50 -12
-21 0 -38 -5 -38 -10 0 -7 -6 -7 -17 -2 -21 11 -53 7 -62 -6 -7 -12 -91 -21
-91 -10 0 5 -4 8 -10 8 -5 0 -10 -7 -10 -15 0 -8 -9 -15 -20 -15 -11 0 -20 -5
-20 -11 0 -5 -4 -7 -10 -4 -5 3 -10 -1 -10 -9 0 -17 -15 -21 -24 -7 -7 11 -46
3 -46 -9 0 -5 10 -6 23 -3 18 5 20 3 9 -8 -9 -10 -17 -11 -30 -3 -25 15 -49 6
-56 -19 -5 -18 -8 -20 -16 -7 -8 12 -10 9 -10 -12 0 -36 -46 -51 -67 -23 -15
22 -17 7 -3 -29 5 -14 16 -26 25 -26 8 0 15 -9 15 -20 0 -25 16 -26 31 -1 11
17 13 17 29 1 9 -9 24 -27 34 -41 l18 -24 -6 28 c-4 16 -2 27 4 27 5 0 10 -4
10 -10 0 -5 6 -10 14 -10 8 0 16 -4 18 -9 7 -19 55 -23 72 -6 9 9 24 14 32 11
12 -5 15 -2 10 9 -3 9 -2 14 3 10 5 -3 12 1 14 7 3 8 6 6 6 -4 1 -22 21 -24
21 -3 0 8 9 15 21 15 16 0 19 4 14 20 -4 11 -2 20 4 20 6 0 11 -6 11 -14 0 -8
7 -16 15 -20 8 -3 14 -1 12 5 -1 5 13 16 31 24 30 13 32 13 32 -5 0 -10 5 -22
12 -26 7 -5 8 -3 3 6 -4 7 -2 15 4 19 13 8 126 5 140 -3 5 -4 12 -2 16 4 9 14
55 12 56 -2 0 -9 2 -9 6 1 5 11 7 11 14 0 6 -10 9 -11 9 -1 0 6 5 12 10 12 6
0 10 -9 10 -21 0 -15 -5 -19 -15 -15 -8 3 -15 2 -16 -2 -5 -66 -5 -84 3 -88 5
-3 6 -15 3 -27 -5 -20 -5 -20 5 -4 6 9 15 15 20 12 14 -9 -12 -45 -32 -45 -13
0 -18 -8 -17 -27 0 -25 1 -26 9 -8 9 22 13 14 12 -25 l-1 -25 11 28 c13 31 34
36 41 10 3 -13 6 -9 12 12 10 36 52 78 71 71 7 -3 15 0 18 7 3 7 3 -6 2 -28
-2 -22 -1 -32 1 -22 9 35 73 11 73 -28 0 -13 4 -26 8 -29 5 -3 5 -29 1 -58 -9
-64 -11 -123 -4 -116 3 3 6 22 7 42 1 20 5 36 9 36 4 0 6 -29 5 -65 -1 -36 2
-65 6 -65 4 0 8 -5 8 -12 0 -9 -3 -9 -12 0 -16 16 -29 15 -27 0 4 -30 -2 -58
-11 -58 -6 0 -8 11 -4 25 4 15 2 25 -5 25 -6 0 -11 7 -11 16 0 8 3 13 8 10 4
-2 15 2 25 9 14 10 15 15 6 21 -7 4 -15 2 -17 -4 -4 -14 -22 -6 -22 9 0 6 5 7
10 4 6 -3 10 1 10 10 0 10 -5 13 -12 9 -8 -5 -9 4 -4 34 4 26 2 42 -4 42 -5 0
-10 -20 -10 -44 0 -26 -6 -48 -15 -56 -18 -15 -19 -7 -4 22 6 11 8 31 5 44 -6
24 -7 24 -27 5 -15 -14 -19 -25 -14 -42 l8 -24 9 24 c4 13 11 21 14 18 3 -3
-1 -18 -9 -33 -14 -27 -15 -27 -21 -6 -5 15 -15 22 -31 22 -19 0 -23 4 -18 17
5 12 2 15 -10 10 -9 -3 -17 -2 -17 2 0 15 -69 51 -85 45 -9 -4 -18 1 -21 11
-5 12 -14 15 -31 10 -16 -4 -34 1 -54 15 -18 14 -36 19 -49 15 -11 -3 -25 -3
-32 1 -16 10 -36 12 -113 14 -56 1 -154 -5 -165 -10 -3 -1 -9 -3 -15 -5 -33
-8 -55 -19 -55 -27 0 -5 -9 -6 -20 -3 -14 5 -20 2 -20 -10 0 -9 -3 -14 -8 -11
-4 2 -15 -2 -26 -9 -14 -11 -17 -21 -11 -53 4 -25 2 -42 -4 -47 -6 -3 -11 0
-12 7 0 7 -6 1 -13 -14 -6 -15 -37 -52 -68 -82 l-56 -55 19 -25 c10 -13 19
-29 19 -36 0 -7 6 -6 15 4 12 12 13 20 5 35 -15 30 -13 34 19 28 24 -5 28 -3
25 11 -3 12 11 28 46 51 27 19 50 38 50 43 0 5 4 7 9 3 5 -3 12 -1 16 5 14 23
26 8 19 -25 -11 -58 4 -122 37 -159 20 -23 36 -32 48 -29 10 3 30 -1 42 -8 13
-7 39 -12 57 -10 19 1 32 -2 32 -9 0 -6 -5 -8 -12 -4 -8 5 -9 2 -4 -11 9 -25
-10 -35 -46 -25 -17 5 -26 5 -23 -1 11 -17 -5 -30 -26 -19 -13 8 -19 7 -19 0
0 -6 21 -20 47 -31 26 -11 51 -26 55 -32 5 -8 8 -7 8 3 0 12 13 16 59 15 33 0
57 3 55 6 -2 4 11 6 29 5 18 0 35 -8 39 -16 6 -13 13 47 9 73 -2 16 19 6 38
-19 l21 -27 -6 34 c-3 19 -2 29 3 22 9 -13 86 -9 117 5 12 6 38 18 59 27 21 9
41 23 44 31 3 8 20 21 37 28 27 11 33 10 43 -3 9 -12 15 -13 23 -5 15 15 48 6
54 -15 3 -9 3 0 0 20 -3 27 -1 36 11 36 19 0 30 -34 15 -52 -8 -10 -8 -13 2
-11 7 1 19 5 26 9 7 5 14 3 16 -5 8 -25 17 -73 17 -91 0 -9 4 -15 10 -12 5 4
9 1 9 -4 0 -6 -4 -11 -10 -11 -17 0 -11 -17 9 -23 10 -2 20 -16 23 -30 3 -17
1 -24 -5 -20 -6 4 -8 0 -4 -11 4 -10 7 -22 7 -28 0 -6 6 -8 14 -5 15 6 31 -19
27 -42 -1 -7 7 -20 19 -28 14 -10 19 -21 15 -34 -4 -13 -2 -19 8 -19 26 0 50
-149 25 -151 -10 0 -10 -2 0 -6 6 -2 12 -14 13 -26 1 -20 2 -20 8 3 l7 25 6
-27 c4 -20 1 -29 -11 -33 -9 -2 -21 -20 -27 -39 -8 -28 -7 -40 6 -67 16 -29
16 -33 1 -48 -14 -15 -17 -15 -23 -1 -4 8 -6 -7 -3 -35 3 -34 2 -42 -4 -25 -8
25 -8 25 -15 -7 -4 -18 -12 -33 -17 -33 -5 0 -9 -4 -9 -10 0 -5 9 -10 20 -10
11 0 20 -4 20 -10 0 -5 -9 -10 -20 -10 -11 0 -20 -5 -20 -11 0 -6 7 -9 14 -6
10 4 13 1 10 -7 -3 -8 -13 -13 -22 -12 -12 1 -18 -8 -20 -31 -2 -18 1 -33 6
-33 5 0 7 11 4 25 -2 15 0 25 7 25 6 0 11 -7 11 -15 0 -8 5 -15 10 -15 6 0 10
-7 10 -16 0 -8 -5 -12 -10 -9 -6 3 -13 -1 -16 -9 -3 -8 -16 -18 -27 -22 -39
-12 -46 -23 -37 -56 6 -20 5 -46 -3 -75 -10 -39 -13 -42 -18 -22 -4 15 -7 5
-7 -28 0 -55 -16 -83 -47 -83 -10 0 -13 -5 -9 -12 5 -7 0 -9 -14 -6 -15 4 -19
2 -15 -9 3 -8 12 -12 19 -9 8 3 14 4 14 2 0 -3 3 -13 6 -23 5 -15 4 -15 -5 -3
-9 13 -11 13 -11 -2 0 -9 -3 -18 -7 -20 -18 -8 -55 -72 -60 -105 -6 -33 -7
-34 -19 -18 -21 28 -28 10 -11 -24 16 -32 12 -74 -6 -68 -5 1 -14 12 -18 24
-6 18 -4 20 14 16 17 -5 19 -3 11 7 -15 16 -55 4 -48 -15 3 -7 0 -24 -6 -37
-10 -21 -10 -21 3 -5 19 22 31 22 24 -2 -2 -10 -1 -24 3 -32 4 -8 4 -23 -1
-34 -7 -17 -8 -17 -8 8 -1 16 -7 27 -15 27 -10 0 -13 -15 -12 -54 0 -31 -5
-61 -13 -69 -7 -9 -10 -21 -6 -27 3 -5 -1 -10 -9 -10 -8 0 -20 -15 -27 -34 -9
-24 -17 -32 -29 -29 -14 4 -16 -2 -15 -29 2 -28 -15 -81 -44 -138 -10 -19 -51
-26 -52 -8 -1 7 -4 -3 -8 -22 -5 -26 -2 -37 9 -41 11 -5 7 -9 -13 -14 -21 -6
-26 -12 -22 -25 5 -15 2 -17 -16 -13 -20 6 -22 4 -15 -28 6 -33 6 -33 -9 -11
-21 29 -35 28 -35 -3 0 -17 -4 -23 -14 -19 -11 4 -13 0 -9 -15 3 -13 1 -21 -7
-21 -7 0 -10 -7 -6 -16 3 -8 -1 -30 -8 -49 -8 -18 -11 -37 -8 -41 4 -4 1 -4
-6 0 -7 5 -11 14 -8 22 3 8 1 14 -4 14 -10 0 -14 -20 -10 -54 2 -17 0 -17 -21
-2 -13 9 -27 16 -31 16 -13 0 -9 -28 5 -33 8 -4 4 -12 -13 -25 -13 -11 -28
-18 -32 -16 -4 3 -8 0 -8 -6 0 -6 -5 -8 -11 -5 -6 4 1 16 18 30 15 14 24 27
20 31 -13 14 -58 -39 -53 -62 3 -11 -1 -29 -9 -40 -14 -18 -14 -17 -15 11 l-1
30 -10 -25 c-6 -14 -8 -33 -5 -42 2 -11 0 -15 -6 -12 -5 4 -8 17 -5 30 2 14 0
27 -4 30 -5 3 -9 -7 -9 -21 0 -20 -4 -26 -15 -21 -8 3 -15 1 -15 -4 0 -6 7
-10 15 -10 8 0 15 -4 15 -10 0 -5 -9 -10 -20 -10 -11 0 -20 4 -20 9 0 5 -7 11
-15 14 -11 5 -12 1 -6 -16 9 -25 4 -50 -10 -42 -13 9 -49 -14 -49 -31 0 -8 -4
-13 -9 -9 -6 3 -14 -3 -20 -12 -5 -10 -17 -18 -27 -18 -9 0 -19 -6 -21 -13 -3
-8 1 -10 14 -5 10 3 15 2 10 -2 -4 -5 -17 -9 -29 -10 -13 -1 -25 -10 -28 -21
-3 -10 -14 -20 -25 -22 -11 -1 -27 -3 -36 -4 -10 -1 -15 -8 -12 -16 4 -10 -1
-11 -21 -6 -19 4 -27 2 -32 -10 -3 -9 -11 -13 -17 -9 -5 3 -16 -2 -24 -12 -7
-11 -13 -13 -13 -7 0 7 -4 12 -10 12 -5 0 -10 -6 -10 -13 0 -11 -16 -13 -75
-9 -68 4 -75 3 -76 -14 0 -11 -3 -14 -6 -6 -7 17 -23 15 -23 -3 0 -8 -4 -15
-10 -15 -5 0 -7 7 -4 15 5 11 2 13 -10 9 -11 -4 -16 0 -17 12 -1 17 -2 17 -6
2 -5 -21 -29 -24 -37 -5 -4 6 -4 2 -2 -11 4 -19 2 -21 -10 -11 -11 9 -14 9
-14 -1 0 -10 -3 -10 -15 0 -12 10 -15 10 -15 -1 0 -9 -3 -10 -8 -4 -11 15 -42
15 -42 -1 0 -8 -4 -14 -10 -14 -5 0 -9 3 -9 8 3 20 -3 30 -18 28 -14 -1 -17 5
-15 24 3 19 1 22 -8 13 -9 -8 -20 -9 -37 -2 -25 9 -25 8 -19 -28 3 -21 3 -32
-1 -24 -4 10 -9 8 -20 -10 -10 -19 -13 -20 -11 -5 2 13 -4 20 -19 22 -15 3
-23 -1 -23 -10 0 -8 -4 -17 -9 -20 -5 -4 -7 13 -5 36 4 42 4 42 -6 11 -7 -22
-15 -30 -25 -27 -10 4 -15 0 -16 -12 -1 -16 -2 -16 -6 -3 -6 23 -50 31 -58 10
-6 -14 -8 -14 -19 2 -16 21 -26 22 -26 2 0 -22 -15 -18 -36 10 -19 25 -58 34
-69 15 -10 -16 -25 -12 -25 6 0 10 -6 14 -15 10 -9 -3 -15 0 -15 10 0 10 -6
14 -15 10 -32 -12 -75 5 -82 33 -9 38 -14 45 -25 30 -7 -11 -11 -11 -15 -1 -2
6 -11 12 -19 12 -9 0 -14 7 -12 18 2 12 -3 16 -18 15 -16 -2 -25 6 -34 27 -7
17 -17 30 -22 30 -15 0 -38 27 -38 45 0 12 -6 15 -20 10 -15 -5 -18 -3 -14 9
4 11 0 13 -15 9 -25 -6 -27 0 -5 21 8 9 11 16 6 16 -5 0 -15 -7 -22 -15 -7 -8
-16 -15 -21 -15 -5 0 -9 7 -9 15 0 8 -5 15 -10 15 -6 0 -8 11 -4 27 7 27 7 27
-11 9 -18 -18 -19 -18 -26 0 -3 11 -5 24 -4 29 1 6 0 7 -2 3 -9 -16 -22 -8
-16 9 5 12 2 15 -9 11 -14 -6 -39 28 -42 54 -1 3 -4 10 -8 14 -5 4 -8 16 -8
28 0 15 -3 17 -12 8 -9 -9 -9 -15 0 -24 16 -16 15 -29 -2 -22 -9 3 -16 -2 -19
-13 -2 -10 -3 -6 -1 9 2 15 -2 29 -9 32 -9 3 -9 7 2 14 10 7 10 11 1 17 -10 6
-10 9 0 15 9 5 9 9 1 14 -6 4 -15 -3 -20 -16 -8 -21 -10 -20 -20 20 -7 23 -16
42 -21 42 -13 0 -13 -3 4 -36 8 -15 12 -32 9 -37 -9 -14 -42 49 -36 71 2 11 0
23 -6 26 -6 4 -11 0 -11 -10 0 -14 -3 -14 -15 -4 -13 11 -13 15 -3 21 10 7 10
9 1 9 -7 0 -13 5 -13 10 0 6 7 10 15 10 8 0 15 5 15 11 0 5 5 7 10 4 6 -3 10
-1 10 4 0 15 -13 14 -36 -4 -10 -8 -25 -15 -31 -15 -21 0 -14 20 9 29 l23 8
-23 7 c-15 5 -21 13 -18 22 3 8 9 21 12 29 3 8 1 15 -5 15 -6 0 -9 6 -7 13 1
6 1 9 -1 5 -12 -21 -21 -4 -16 29 4 24 3 34 -4 30 -12 -7 -23 -77 -13 -77 3 0
6 -16 6 -36 0 -33 -1 -34 -9 -13 -5 13 -12 31 -17 39 -4 8 -3 26 2 40 5 13 6
36 2 50 l-7 25 -7 -25 c-5 -16 -8 -19 -9 -7 -1 18 -21 25 -21 6 0 -5 -5 -7
-12 -3 -8 5 -7 10 4 18 19 14 30 45 21 59 -4 7 -9 2 -13 -13 l-6 -25 -17 32
c-16 30 -16 33 1 42 9 6 11 11 5 11 -7 0 -13 7 -13 15 0 8 -9 15 -20 15 -11 0
-20 7 -20 15 0 10 10 15 31 15 18 0 28 4 24 10 -3 6 -16 8 -28 5 -26 -6 -62
19 -52 35 4 6 1 18 -6 26 -6 8 -9 18 -5 21 4 4 12 1 17 -7 8 -11 9 -8 3 10 -8
31 -15 39 -21 23 -9 -26 -25 -12 -20 17 7 32 -7 50 -17 23 -5 -13 -9 -14 -19
-4 -9 9 -9 14 2 20 9 6 10 11 2 15 -6 4 -11 19 -12 34 0 18 -3 22 -7 12 -10
-21 -29 -22 -28 -2 0 9 -4 41 -8 70 -8 51 -9 51 -26 32 -16 -19 -17 -18 -12
30 4 40 1 51 -12 56 -9 3 -16 12 -16 20 0 8 -6 14 -12 14 -10 0 -10 2 -1 8 8
5 6 14 -8 31 -10 13 -19 17 -19 10 0 -10 -3 -10 -12 -1 -15 15 -21 52 -8 52 6
0 10 -5 10 -11 0 -5 4 -8 8 -5 5 3 6 20 4 38 -5 32 -6 32 -13 8 -6 -21 -7 -22
-9 -5 -1 18 -2 17 -11 -4 -11 -29 -16 -26 -22 14 -2 17 -7 38 -12 48 -4 10 -5
37 -2 60 4 27 3 35 -2 22 -9 -19 -9 -19 -19 5 -6 14 -11 21 -11 15 -1 -5 -8 3
-17 20 -8 16 -13 38 -10 49 3 11 0 26 -6 33 -6 8 -8 17 -4 20 4 4 11 1 16 -7
5 -8 12 -11 16 -7 4 4 -3 15 -14 26 -23 19 -26 59 -7 73 6 4 2 8 -7 8 -10 0
-18 6 -18 14 0 8 -6 17 -12 19 -9 4 -10 8 -2 14 12 9 14 103 2 103 -4 0 -5 12
-2 28 5 28 -10 62 -22 49 -4 -4 -2 -13 4 -19 14 -14 16 -28 5 -28 -5 0 -13 11
-20 25 -6 15 -7 25 -1 25 5 0 6 5 3 10 -4 6 -2 17 5 25 8 10 8 15 -1 20 -7 5
-8 10 -1 14 6 4 12 29 14 56 2 38 9 55 27 72 14 12 22 26 18 30 -5 4 -12 1
-16 -6 -6 -9 -11 -10 -15 -3 -4 6 1 15 10 20 11 6 13 11 5 16 -6 4 -11 15 -11
24 0 14 2 14 9 3 8 -12 12 -12 25 2 21 20 20 31 0 23 -13 -5 -15 -2 -11 15 3
12 2 31 -4 41 -10 19 4 27 16 8 9 -15 25 -12 25 4 0 8 -8 17 -17 20 -11 5 -14
9 -6 14 16 10 46 82 48 116 2 16 10 35 19 41 9 7 16 22 16 33 0 11 5 24 10 27
6 4 9 9 6 13 -2 4 7 17 20 30 13 12 24 19 24 15 1 -4 7 3 15 17 8 14 14 19 15
11 0 -23 14 -2 15 22 0 13 6 22 15 22 10 0 19 18 27 55 12 54 13 54 9 10 -2
-25 -2 -40 1 -33 2 7 11 9 19 6 9 -3 14 1 14 13 0 16 -2 17 -10 4 -7 -11 -10
0 -10 38 0 29 4 52 10 52 7 0 9 -15 6 -37 -3 -21 -3 -30 0 -20 3 9 10 17 15
17 6 0 7 9 4 20 -3 11 -2 20 4 20 5 0 13 -9 16 -21 10 -30 35 -5 35 35 0 21 3
27 9 17 7 -11 9 -11 14 0 4 10 14 4 37 -20 26 -26 30 -35 19 -42 -13 -8 -6
-13 14 -10 8 1 9 -13 1 -22 -12 -11 -34 5 -35 27 -1 19 -2 19 -9 -4 -5 -17 -8
-19 -9 -7 -1 9 -7 17 -13 18 -10 0 -10 2 0 6 16 6 15 33 -2 33 -14 0 -30 -55
-20 -71 3 -5 -1 -7 -8 -4 -7 3 -19 -4 -26 -15 -11 -18 -11 -21 4 -18 9 2 19
-4 21 -12 4 -13 3 -13 -6 0 -8 11 -11 3 -11 -35 0 -28 -5 -56 -12 -63 -9 -9
-7 -12 10 -12 12 0 22 -4 22 -9 0 -5 8 -7 19 -4 21 5 51 -21 51 -44 0 -13 3
-13 15 -3 13 10 15 9 15 -9 0 -16 5 -20 21 -18 11 2 24 9 29 16 12 20 52 -27
45 -53 -5 -19 -5 -19 5 -3 15 24 30 21 30 -5 1 -21 2 -20 15 7 10 19 13 22 9
8 -6 -24 11 -32 19 -10 4 9 8 9 14 0 6 -8 13 -8 27 3 17 12 18 14 3 14 -9 0
-17 6 -17 14 0 8 -7 16 -15 20 -19 7 -20 36 -1 36 8 0 14 6 13 13 -2 56 4 87
18 87 8 0 15 8 15 18 0 24 25 -19 51 -88 5 -14 24 -42 42 -64 27 -31 42 -40
80 -46 26 -4 50 -3 53 2 3 4 33 8 68 8 59 0 63 2 75 28 8 15 17 34 21 43 5 9
11 37 15 63 4 25 12 49 18 53 11 7 86 -74 87 -94 0 -15 20 -18 20 -3 0 20 38
10 43 -11 5 -18 2 -20 -17 -17 -19 4 -46 -11 -46 -26 0 -7 50 3 71 14 14 8 19
5 24 -11 6 -17 9 -19 16 -8 13 21 11 26 -13 32 -16 4 -23 14 -24 31 -2 23 -13
43 -42 69 -7 7 -21 20 -30 31 -9 10 -21 22 -27 27 -55 47 -61 55 -56 77 3 13
11 22 16 20 6 -2 9 -7 7 -11 -1 -5 2 -5 8 -2 6 4 18 -1 25 -11 8 -11 15 -15
15 -10 0 5 9 -1 20 -14 17 -19 21 -20 26 -7 5 15 -20 52 -35 52 -3 0 -20 9
-38 19 -32 20 -54 67 -34 74 6 2 11 10 11 17 0 12 69 31 139 39 14 1 26 8 27
15 1 6 0 7 -2 2 -7 -13 -34 -2 -34 14 0 7 16 16 36 20 28 5 35 10 31 24 -2 10
3 23 14 29 24 16 29 15 29 -3 0 -8 4 -15 10 -15 5 0 9 6 7 13 -1 6 4 11 10 10
7 -2 12 0 12 5 -1 4 0 9 1 12 1 3 3 38 5 78 2 64 6 75 29 93 14 11 26 25 26
32 0 13 54 64 104 98 20 13 36 31 36 40 0 9 9 24 20 34 11 10 20 16 20 13 0
-4 16 10 35 29 31 31 37 34 52 22 12 -10 15 -10 9 -1 -4 7 -2 12 8 12 8 0 18
-4 21 -10 3 -5 11 -10 17 -10 7 0 8 22 3 65 -6 56 -4 65 9 65 10 0 16 -9 16
-22 0 -13 5 -30 10 -38 8 -13 10 -12 10 3 0 9 4 17 9 17 10 0 3 39 -11 57 -14
17 -1 32 22 26 16 -4 20 0 20 18 0 28 16 56 26 47 3 -4 2 -41 -3 -82 -5 -42
-5 -85 0 -98 4 -13 6 -35 3 -50 -3 -16 -1 -28 4 -28 5 0 12 17 15 38 3 20 8
48 11 62 6 28 19 117 33 235 5 44 14 105 20 134 6 30 11 107 12 170 0 78 5
121 14 133 8 12 11 34 8 57 -6 41 11 65 22 32 3 -10 5 -23 4 -27 -1 -5 -1 -22
1 -39 1 -26 3 -27 10 -10 12 29 12 85 -1 85 -6 0 -8 9 -3 22 6 19 5 21 -8 11
-8 -7 -17 -11 -20 -8 -9 10 4 57 18 62 8 3 14 11 14 18 0 16 25 26 45 19 8 -4
15 -15 15 -25 0 -10 5 -19 10 -19 6 0 10 9 10 20 0 11 -4 20 -10 20 -5 0 -9
12 -9 28 1 16 3 20 6 10 2 -10 11 -18 19 -18 8 0 14 -7 14 -15 0 -8 5 -15 10
-15 6 0 10 6 8 14 -2 8 2 15 7 15 6 0 10 -8 9 -18 0 -9 7 -24 15 -31 13 -12
14 -12 8 2 -3 9 -8 34 -12 55 -5 33 -4 35 5 13 10 -22 12 -23 21 -8z m211 -4
c-7 -7 -12 -8 -12 -2 0 14 12 26 19 19 2 -3 -1 -11 -7 -17z m-145 -20 c-3 -8
-6 -5 -6 6 -1 11 2 17 5 13 3 -3 4 -12 1 -19z m203 -37 c0 -11 -4 -23 -10 -26
-6 -4 -10 5 -10 19 0 14 5 26 10 26 6 0 10 -9 10 -19z m-2810 -11 c0 -5 -4
-10 -10 -10 -5 0 -10 5 -10 10 0 6 5 10 10 10 6 0 10 -4 10 -10z m1600 -90 c0
-5 -4 -10 -10 -10 -5 0 -10 5 -10 10 0 6 5 10 10 10 6 0 10 -4 10 -10z m-1765
-10 c3 -5 -1 -10 -9 -10 -9 0 -16 5 -16 10 0 6 4 10 9 10 6 0 13 -4 16 -10z
m1275 -43 c0 -18 -2 -19 -10 -7 -13 20 -13 43 0 35 6 -3 10 -16 10 -28z m3243
13 c3 -11 1 -18 -4 -14 -5 3 -9 12 -9 20 0 20 7 17 13 -6z m-2896 -12 c-3 -8
-6 -5 -6 6 -1 11 2 17 5 13 3 -3 4 -12 1 -19z m-527 -18 c0 -5 -2 -10 -4 -10
-3 0 -8 5 -11 10 -3 6 -1 10 4 10 6 0 11 -4 11 -10z m2167 -62 c-3 -8 -6 -5
-6 6 -1 11 2 17 5 13 3 -3 4 -12 1 -19z m-3263 -47 c-27 -31 -35 -26 -17 10
10 20 19 27 25 21 6 -6 3 -17 -8 -31z m2325 -115 c12 -15 18 -60 9 -63 -29
-10 -40 -2 -35 26 4 16 2 44 -3 63 -6 18 -7 55 -3 83 l7 50 8 -74 c4 -40 12
-79 17 -85z m-2359 64 c0 -5 -5 -10 -11 -10 -5 0 -7 5 -4 10 3 6 8 10 11 10 2
0 4 -4 4 -10z m2380 -30 c0 -5 -4 -10 -10 -10 -5 0 -10 5 -10 10 0 6 5 10 10
10 6 0 10 -4 10 -10z m-443 -32 c-3 -7 -5 -2 -5 12 0 14 2 19 5 13 2 -7 2 -19
0 -25z m50 -10 c-3 -8 -6 -5 -6 6 -1 11 2 17 5 13 3 -3 4 -12 1 -19z m1079
-45 c-10 -54 -29 -103 -39 -103 -11 0 -6 25 18 93 21 57 30 61 21 10z m-989
-55 c-3 -8 -6 -5 -6 6 -1 11 2 17 5 13 3 -3 4 -12 1 -19z m283 -49 c0 -36 -2
-40 -15 -29 -8 7 -15 25 -15 41 0 19 5 29 15 29 11 0 15 -11 15 -41z m606
-165 c-19 -19 -20 -14 -4 22 10 21 14 24 16 11 2 -9 -4 -24 -12 -33z m-75 -37
c-17 -17 -24 -1 -10 25 12 21 14 21 17 4 2 -10 -1 -23 -7 -29z m1896 -99 c-3
-8 -6 -5 -6 6 -1 11 2 17 5 13 3 -3 4 -12 1 -19z m77 -353 c-7 -18 -8 -18 -14
1 -9 23 -1 39 11 27 6 -6 6 -18 3 -28z m-3729 5 c3 -5 1 -10 -4 -10 -6 0 -11
5 -11 10 0 6 2 10 4 10 3 0 8 -4 11 -10z m74 -77 c1 9 6 17 12 17 6 0 9 -7 5
-15 -3 -8 -1 -15 3 -15 5 0 12 6 14 13 3 6 6 -3 6 -21 1 -22 5 -31 13 -26 7 4
8 3 4 -4 -10 -17 34 -72 58 -72 17 0 18 -2 6 -10 -8 -5 -10 -10 -5 -10 6 0 23
-12 40 -26 27 -23 30 -24 36 -7 7 16 10 15 9 -3 -1 -3 9 -14 22 -25 13 -11 19
-19 13 -16 -5 2 -26 -1 -45 -8 l-35 -13 30 -12 c17 -7 38 -12 48 -12 10 0 17
-7 17 -19 0 -13 -7 -19 -21 -19 -11 0 -18 -4 -14 -10 3 -5 12 -7 20 -3 10 3
15 -1 15 -15 0 -16 -7 -20 -45 -20 -42 -1 -45 0 -46 26 -1 26 -1 26 -10 -6 -9
-29 -12 -31 -30 -21 -14 7 -24 7 -33 0 -10 -8 -18 -6 -30 8 -10 11 -15 24 -12
29 3 6 0 12 -8 15 -11 4 -13 -3 -9 -36 l5 -42 -26 35 c-30 40 -41 73 -30 91 4
7 3 9 -4 5 -5 -3 -12 0 -15 6 -2 7 -8 10 -13 5 -4 -4 2 -34 14 -67 12 -33 17
-60 12 -60 -6 0 -10 7 -10 15 0 8 -4 15 -9 15 -5 0 -12 18 -16 40 -6 36 -25
67 -25 40 0 -6 -5 -8 -10 -5 -6 4 -22 0 -35 -9 -13 -9 -32 -16 -40 -16 -12 0
-15 -6 -10 -22 l6 -23 -20 23 c-22 25 -31 28 -31 8 0 -7 -9 -16 -19 -19 -14
-3 -18 -1 -14 10 5 12 1 14 -15 9 -17 -6 -23 -2 -28 18 -3 14 -10 26 -15 26
-5 0 -7 11 -5 25 5 24 -11 31 -26 10 -4 -5 -10 -2 -14 8 -4 11 -1 24 6 30 10
9 14 9 17 -1 7 -18 23 -4 24 21 1 21 2 20 10 -3 6 -18 7 -8 4 35 -3 39 -1 55
5 45 7 -10 10 -11 10 -2 0 6 9 12 20 12 11 0 20 5 20 11 0 15 91 100 101 93 4
-2 15 6 24 18 11 16 18 19 23 11 11 -18 72 -13 73 6 1 9 7 -6 14 -34 7 -27 14
-42 14 -32z m1691 -10 c-11 -17 -11 -17 -6 0 3 10 6 24 7 30 0 9 2 9 5 0 3 -7
0 -20 -6 -30z m36 -50 c-4 -4 -12 -1 -19 7 -9 10 -9 11 1 6 7 -4 12 -2 13 6 0
11 2 11 6 0 3 -7 2 -16 -1 -19z m754 -87 c0 -3 -4 -8 -10 -11 -5 -3 -10 -1
-10 4 0 6 5 11 10 11 6 0 10 -2 10 -4z m140 -115 c0 -13 -39 -58 -40 -46 0 10
31 55 38 55 1 0 2 -4 2 -9z m-2998 -23 c-7 -7 -12 -8 -12 -2 0 14 12 26 19 19
2 -3 -1 -11 -7 -17z m53 2 c-3 -4 -13 -10 -24 -13 -14 -3 -17 0 -14 13 3 12
11 16 24 13 10 -3 17 -9 14 -13z m245 -11 c0 -5 -7 -9 -15 -9 -8 0 -15 -4 -15
-10 0 -5 7 -7 15 -4 9 4 15 0 15 -9 0 -9 3 -24 7 -34 4 -12 -2 -9 -20 10 -28
29 -31 36 -21 61 6 15 34 11 34 -5z m365 -29 c0 -18 -5 -35 -10 -37 -7 -2 -11
13 -10 37 0 22 4 38 10 37 6 -2 10 -19 10 -37z m-680 21 c3 -5 1 -12 -5 -16
-5 -3 -10 1 -10 9 0 18 6 21 15 7z m245 -12 c0 -11 -4 -18 -10 -14 -5 3 -7 12
-3 20 7 21 13 19 13 -6z m495 1 c3 -5 -3 -10 -14 -10 -12 0 -21 5 -21 10 0 6
6 10 14 10 8 0 18 -4 21 -10z m2272 -12 c-3 -8 -6 -5 -6 6 -1 11 2 17 5 13 3
-3 4 -12 1 -19z m-627 -3 c6 -3 10 -2 10 4 0 15 80 8 90 -9 7 -10 10 -11 10
-2 0 18 27 15 34 -4 9 -23 0 -31 -37 -39 -17 -4 -35 -12 -39 -18 -4 -7 -11 -7
-21 2 -9 7 -39 12 -69 13 -29 0 -58 4 -63 9 -11 8 -34 7 -50 -3 -15 -9 -65 -7
-65 3 0 18 5 24 17 21 7 -2 13 2 13 8 0 6 11 8 25 6 14 -3 25 -1 25 4 0 17 95
21 120 5z m-2200 -15 c0 -5 -2 -10 -4 -10 -3 0 -8 5 -11 10 -3 6 -1 10 4 10 6
0 11 -4 11 -10z m2797 -12 c-3 -8 -6 -5 -6 6 -1 11 2 17 5 13 3 -3 4 -12 1
-19z m-421 -33 c-4 -14 -13 -25 -22 -25 -13 0 -13 4 2 30 21 34 29 32 20 -5z
m-2286 10 c0 -8 -4 -15 -10 -15 -5 0 -10 7 -10 15 0 8 5 15 10 15 6 0 10 -7
10 -15z m2344 7 c3 -5 -1 -9 -9 -9 -8 0 -12 4 -9 9 3 4 7 8 9 8 2 0 6 -4 9 -8z
m-459 -22 c3 -5 1 -10 -4 -10 -6 0 -11 5 -11 10 0 6 2 10 4 10 3 0 8 -4 11
-10z m-1531 -53 c8 -12 7 -20 -2 -29 -11 -11 -16 -10 -27 5 -15 20 -9 50 8 44
6 -2 15 -11 21 -20z m1705 -13 c20 -10 31 -22 29 -32 -5 -25 -35 -26 -41 -1
-3 11 -10 18 -15 15 -11 -7 -24 19 -15 28 8 8 5 8 42 -10z m578 -56 c-3 -8 -6
-5 -6 6 -1 11 2 17 5 13 3 -3 4 -12 1 -19z m-4093 -20 c-3 -4 -11 -5 -20 -1
-11 4 -12 8 -3 20 10 11 14 11 20 1 4 -6 6 -15 3 -20z m1239 -5 c-5 -12 -7
-12 -14 -1 -5 7 -9 19 -9 27 0 11 3 11 14 1 8 -6 12 -18 9 -27z m565 8 c3 -8
-1 -12 -9 -9 -7 2 -15 10 -17 17 -3 8 1 12 9 9 7 -2 15 -10 17 -17z m2372 -13
c0 -5 4 -7 9 -3 6 3 15 -3 21 -14 6 -12 6 -22 1 -25 -5 -4 -12 0 -15 6 -3 7
-4 0 -1 -17 4 -21 3 -26 -4 -16 -8 12 -11 12 -23 0 -8 -8 -17 -21 -21 -29 -3
-10 -6 -7 -6 8 -1 12 4 22 10 22 8 0 10 13 6 38 -3 29 -1 39 9 39 8 0 14 -4
14 -9z m-650 -13 c0 -8 -4 -15 -10 -15 -5 0 -10 7 -10 15 0 8 5 15 10 15 6 0
10 -7 10 -15z m240 -92 c0 -35 3 -44 10 -33 7 10 10 11 10 2 0 -11 -41 -33
-58 -31 -16 3 -72 -14 -72 -22 0 -14 -20 -11 -26 4 -2 7 16 35 41 62 25 27 45
53 45 57 0 5 11 8 25 8 23 0 25 -4 25 -47z m1577 25 c-3 -8 -6 -5 -6 6 -1 11
2 17 5 13 3 -3 4 -12 1 -19z m-5397 -70 c0 -16 -3 -19 -11 -11 -6 6 -8 16 -5
22 11 17 16 13 16 -11z m3850 -28 c0 -5 -4 -10 -10 -10 -5 0 -10 5 -10 10 0 6
5 10 10 10 6 0 10 -4 10 -10z m-195 -10 c3 -5 1 -10 -4 -10 -6 0 -11 5 -11 10
0 6 2 10 4 10 3 0 8 -4 11 -10z m115 -60 c0 -5 -4 -10 -10 -10 -5 0 -10 5 -10
10 0 6 5 10 10 10 6 0 10 -4 10 -10z m1657 -112 c-3 -7 -5 -2 -5 12 0 14 2 19
5 13 2 -7 2 -19 0 -25z m-5451 -15 c-10 -10 -19 5 -10 18 6 11 8 11 12 0 2 -7
1 -15 -2 -18z m-24 -85 c-7 -7 -12 -8 -12 -2 0 14 12 26 19 19 2 -3 -1 -11 -7
-17z m5525 -190 c-3 -8 -6 -5 -6 6 -1 11 2 17 5 13 3 -3 4 -12 1 -19z m-5597
-25 c0 -20 -24 -11 -28 10 -2 12 1 15 12 11 9 -3 16 -13 16 -21z m5602 -47
c-7 -13 -21 16 -14 32 4 13 7 12 12 -4 4 -10 5 -23 2 -28z m-5633 -42 c3 -16
1 -17 -13 -5 -19 16 -21 34 -3 29 6 -3 14 -13 16 -24z m4638 -19 c-4 -8 -11
-15 -17 -15 -6 0 -6 7 2 20 14 22 24 19 15 -5z m-3597 -51 c0 -8 -5 -12 -10
-9 -6 4 -8 11 -5 16 9 14 15 11 15 -7z m3600 6 c0 -5 -5 -10 -11 -10 -5 0 -7
5 -4 10 3 6 8 10 11 10 2 0 4 -4 4 -10z m-3620 -55 c0 -8 -4 -15 -10 -15 -5 0
-10 7 -10 15 0 8 5 15 10 15 6 0 10 -7 10 -15z m4557 -32 c-3 -10 -5 -4 -5 12
0 17 2 24 5 18 2 -7 2 -21 0 -30z m-992 -63 c3 -5 1 -10 -4 -10 -6 0 -11 5
-11 10 0 6 2 10 4 10 3 0 8 -4 11 -10z m35 -4 c0 -3 -4 -8 -10 -11 -5 -3 -10
-1 -10 4 0 6 5 11 10 11 6 0 10 -2 10 -4z m-9 -49 c-10 -9 -11 -8 -5 6 3 10 9
15 12 12 3 -3 0 -11 -7 -18z m1046 -54 c-2 -16 -4 -3 -4 27 0 30 2 43 4 28 2
-16 2 -40 0 -55z m-1120 -95 c-3 -8 -6 -5 -6 6 -1 11 2 17 5 13 3 -3 4 -12 1
-19z m-3411 -13 c8 -21 -3 -48 -17 -39 -8 4 -7 9 2 14 10 7 10 11 0 24 -10 11
-10 16 -2 16 6 0 14 -7 17 -15z m3374 -10 c0 -7 6 -16 13 -18 7 -4 6 -6 -4 -6
-10 -1 -19 9 -21 24 -3 13 -1 22 3 19 5 -3 9 -11 9 -19z m-3280 -216 c0 -4 -4
-11 -10 -14 -5 -3 -10 -1 -10 4 0 6 -7 11 -15 11 -8 0 -15 4 -15 9 0 4 11 6
25 3 14 -2 25 -8 25 -13z m3240 -14 c0 -8 -4 -15 -10 -15 -5 0 -10 7 -10 15 0
8 5 15 10 15 6 0 10 -7 10 -15z m-3230 -65 c0 -5 -4 -10 -10 -10 -5 0 -10 5
-10 10 0 6 5 10 10 10 6 0 10 -4 10 -10z m40 -13 c0 -14 -6 -24 -15 -24 -8 0
-15 7 -15 14 0 8 4 11 10 8 6 -3 7 1 4 9 -3 9 -1 16 5 16 6 0 11 -10 11 -23z
m3090 -82 c0 -8 -2 -15 -4 -15 -2 0 -6 7 -10 15 -3 8 -1 15 4 15 6 0 10 -7 10
-15z m-62 -163 c6 -18 -15 -14 -22 4 -4 10 -1 14 6 12 6 -2 14 -10 16 -16z
m1432 -189 c0 -13 -4 -23 -9 -23 -10 0 -21 57 -12 65 8 8 21 -18 21 -42z
m-5848 -57 c6 4 9 1 7 -5 -7 -19 -24 -14 -26 6 -2 10 0 12 3 5 3 -6 10 -9 16
-6z m-5 -58 c-3 -8 -6 -5 -6 6 -1 11 2 17 5 13 3 -3 4 -12 1 -19z m39 0 c-3
-13 -5 -26 -5 -30 -1 -5 -5 -8 -9 -8 -4 0 -7 12 -6 28 2 33 2 32 14 32 5 0 8
-10 6 -22z m4014 -317 c0 -6 -4 -13 -10 -16 -5 -3 -10 1 -10 9 0 9 5 16 10 16
6 0 10 -4 10 -9z m-23 -63 c-3 -8 -6 -5 -6 6 -1 11 2 17 5 13 3 -3 4 -12 1
-19z m2130 -210 c-3 -7 -5 -2 -5 12 0 14 2 19 5 13 2 -7 2 -19 0 -25z m-39
-59 c-3 -8 -7 -3 -11 10 -4 17 -3 21 5 13 5 -5 8 -16 6 -23z m187 22 c3 -5 1
-12 -5 -16 -5 -3 -10 1 -10 9 0 18 6 21 15 7z m-2615 -30 c0 -6 -4 -13 -10
-16 -5 -3 -10 1 -10 9 0 9 5 16 10 16 6 0 10 -4 10 -9z m2615 -21 c3 -5 1 -10
-4 -10 -6 0 -11 5 -11 10 0 6 2 10 4 10 3 0 8 -4 11 -10z m-2898 -182 c-3 -7
-5 -2 -5 12 0 14 2 19 5 13 2 -7 2 -19 0 -25z m33 22 c0 -5 -4 -10 -10 -10 -5
0 -10 5 -10 10 0 6 5 10 10 10 6 0 10 -4 10 -10z m-880 -30 c20 -12 9 -21 -18
-13 -12 3 -19 9 -16 14 7 11 15 11 34 -1z m675 0 c3 -5 1 -10 -4 -10 -6 0 -11
5 -11 10 0 6 2 10 4 10 3 0 8 -4 11 -10z m679 -172 c-4 -13 -7 -51 -7 -86 1
-48 -2 -62 -12 -58 -18 7 -25 -16 -25 -81 0 -45 3 -54 15 -49 11 4 15 -1 15
-18 0 -14 -5 -26 -11 -28 -6 -2 -3 -19 9 -46 10 -23 22 -39 25 -35 4 3 7 1 7
-5 0 -7 -4 -12 -10 -12 -5 0 -10 -7 -10 -15 0 -8 5 -15 10 -15 6 0 10 -10 10
-22 0 -17 -3 -19 -9 -9 -7 11 -10 9 -16 -9 -7 -21 -8 -21 -26 9 -22 36 -23 41
-9 41 6 0 10 -6 10 -14 0 -8 5 -18 12 -22 8 -5 9 0 5 16 -3 13 -2 29 4 36 7 8
7 14 -1 19 -5 3 -10 1 -10 -4 0 -17 -30 -13 -36 4 -10 26 -24 17 -24 -15 0
-20 9 -40 25 -56 18 -18 24 -32 20 -47 -5 -17 -4 -19 4 -7 7 9 11 10 11 3 0
-17 -14 -23 -29 -13 -8 4 -10 13 -6 20 4 6 -1 17 -11 25 -23 17 -34 19 -34 5
0 -5 7 -10 15 -10 11 0 14 -7 9 -25 -4 -18 -1 -27 10 -31 9 -3 13 -10 10 -15
-3 -5 0 -9 6 -9 6 0 9 -4 5 -10 -3 -5 -12 -7 -20 -3 -8 3 -15 0 -15 -6 0 -6 5
-11 11 -11 7 0 9 -10 7 -25 -3 -14 -1 -25 3 -25 5 0 9 -4 9 -9 0 -5 -8 -8 -17
-6 -10 2 -22 4 -26 4 -4 1 -3 10 3 21 8 14 7 25 -2 41 -10 17 -10 23 0 26 6 3
12 9 12 15 0 14 -43 47 -53 41 -5 -3 1 -12 13 -20 16 -11 19 -18 10 -23 -9 -6
-9 -13 -1 -29 8 -15 9 -27 2 -39 -9 -15 -11 -14 -12 8 -1 18 -3 20 -6 7 -3
-11 -11 -16 -19 -13 -7 3 -16 1 -19 -4 -4 -6 1 -10 9 -10 9 0 16 -9 16 -20 0
-11 -5 -20 -11 -20 -6 0 -9 -7 -6 -15 4 -8 2 -17 -3 -20 -13 -8 -13 -35 0 -35
6 0 10 7 10 15 0 21 20 19 22 -2 0 -10 2 -22 3 -28 2 -5 3 -16 4 -23 0 -7 5
-11 10 -7 14 8 22 -11 16 -37 -4 -15 -13 -24 -26 -24 -17 0 -20 6 -17 33 2 18
0 33 -5 33 -6 0 -7 -25 -4 -60 6 -68 0 -103 -16 -93 -7 4 -8 0 -4 -11 4 -10 7
-22 7 -27 0 -5 5 -9 10 -9 6 0 10 11 10 25 0 36 25 31 37 -7 5 -18 8 -23 6
-11 -1 12 2 23 9 25 7 3 9 12 5 22 -4 9 -11 14 -17 11 -5 -3 -10 0 -10 9 0 27
35 10 40 -20 l6 -29 7 34 c5 22 3 37 -4 41 -7 5 -4 9 8 12 14 4 18 -1 20 -21
0 -14 -4 -29 -10 -33 -16 -10 -1 -22 18 -15 8 4 15 19 16 34 0 23 2 25 8 9 7
-18 8 -18 14 -2 4 10 5 22 2 27 -8 12 64 10 98 -3 22 -9 27 -16 25 -37 -2 -15
-9 -25 -16 -23 -8 1 -11 -5 -6 -22 4 -16 1 -25 -11 -30 -14 -5 -15 -9 -5 -21
10 -12 9 -16 -4 -21 -9 -3 -16 -14 -16 -23 -1 -20 -25 -53 -33 -44 -4 3 -7 -2
-7 -13 0 -10 -9 -37 -19 -59 -11 -22 -25 -55 -32 -72 -6 -18 -16 -30 -22 -26
-6 4 -8 -2 -4 -17 3 -13 2 -29 -3 -35 -5 -6 -11 -22 -13 -34 -3 -23 -52 -81
-67 -81 -5 0 -11 -14 -15 -31 -5 -23 -10 -28 -18 -20 -15 15 -27 14 -27 -4 0
-16 -46 -65 -60 -65 -6 0 -10 -8 -10 -17 0 -15 -2 -14 -16 3 -8 10 -12 13 -9
6 9 -16 -14 -64 -26 -56 -5 3 -6 -2 -3 -10 3 -9 1 -16 -5 -16 -6 0 -11 -7 -11
-16 0 -8 -4 -13 -9 -9 -10 6 -64 -98 -66 -129 -1 -10 -9 -24 -18 -31 -10 -7
-17 -17 -17 -23 0 -7 -16 -28 -35 -48 -19 -19 -35 -40 -35 -45 0 -6 -4 -7 -10
-4 -5 3 -10 -1 -10 -10 0 -9 -4 -13 -10 -10 -5 3 -10 0 -10 -7 0 -8 -12 -28
-27 -45 -16 -17 -46 -52 -68 -78 -56 -66 -65 -75 -76 -75 -6 0 -7 -5 -4 -11 4
-6 -1 -19 -11 -29 -33 -33 -49 -54 -47 -62 2 -3 -10 -17 -26 -31 -16 -13 -32
-34 -36 -47 -4 -13 -24 -41 -44 -63 -20 -21 -40 -46 -45 -55 -10 -20 -68 -72
-78 -72 -5 0 -8 -7 -8 -15 0 -8 -5 -15 -10 -15 -6 0 -19 -15 -30 -32 -11 -18
-20 -29 -20 -25 0 4 -16 -8 -37 -28 -20 -19 -42 -35 -49 -35 -7 0 -16 -10 -19
-21 -6 -17 -9 -19 -17 -8 -7 11 -11 11 -15 1 -2 -6 -9 -10 -14 -6 -5 3 -9 -3
-9 -13 0 -15 -2 -16 -10 -3 -6 9 -10 10 -10 3 0 -7 -22 -23 -50 -36 -27 -13
-50 -20 -50 -15 0 20 -20 -5 -45 -56 -16 -32 -35 -56 -47 -59 -11 -3 -17 -10
-13 -16 3 -6 -5 -16 -19 -22 -14 -7 -35 -32 -47 -55 -11 -24 -25 -46 -30 -50
-5 -3 -9 -14 -9 -25 0 -11 -5 -17 -10 -14 -6 3 -13 -2 -17 -12 -7 -21 -104
-186 -113 -193 -12 -10 -32 -70 -32 -96 0 -17 -3 -21 -8 -14 -5 9 -18 -5 -39
-41 -17 -30 -31 -59 -31 -66 0 -6 -9 -15 -20 -18 -13 -4 -20 -15 -20 -31 0
-13 -4 -24 -10 -24 -5 0 -10 -6 -10 -12 0 -7 -14 -40 -30 -73 -17 -32 -33 -74
-36 -92 -3 -18 -10 -33 -14 -33 -4 0 -11 -12 -15 -27 -4 -16 -14 -36 -23 -45
-35 -36 -42 -48 -42 -78 0 -19 -5 -29 -12 -27 -7 1 -12 -4 -11 -10 2 -7 -8
-20 -21 -28 -16 -11 -22 -22 -19 -35 3 -12 -5 -32 -21 -51 -16 -19 -24 -38
-21 -49 4 -12 -1 -19 -17 -23 -18 -5 -20 -9 -10 -19 17 -17 15 -28 -5 -29 -17
-1 -17 -2 0 -6 19 -5 22 -18 6 -28 -6 -4 -8 -13 -5 -21 3 -7 1 -16 -4 -19 -4
-3 -12 -36 -16 -73 -8 -65 -8 -66 -15 -27 -4 22 -3 43 3 46 5 3 5 16 -1 32 -7
18 -7 36 0 53 5 15 7 35 4 45 -8 23 11 59 30 59 18 0 20 17 3 22 -8 3 -2 28
20 84 18 43 35 86 37 96 2 9 11 30 19 47 9 16 16 38 16 47 0 19 15 70 37 124
7 19 15 58 17 85 4 65 -30 345 -51 410 -18 58 -31 205 -37 430 -5 163 -11 210
-29 233 -19 24 8 37 49 24 35 -10 38 -9 79 31 l42 42 -8 65 c-4 36 -6 72 -3
81 3 10 -15 34 -46 63 -40 37 -56 47 -73 42 -12 -4 -30 -9 -41 -11 -10 -2 -24
-12 -31 -21 -7 -10 -19 -15 -26 -12 -22 8 -104 184 -119 253 -7 33 -17 65 -22
72 -5 7 -20 49 -32 95 -27 98 -33 187 -14 200 10 8 10 11 1 15 -25 9 -13 25
16 21 21 -3 28 -1 24 9 -3 7 -9 10 -14 7 -5 -3 -6 1 -4 8 7 18 -28 51 -103 97
-111 68 -226 176 -264 248 -22 41 -22 43 -5 72 9 16 17 38 17 49 0 24 48 58
155 110 70 34 95 42 129 42 19 0 39 6 45 14 6 8 25 16 41 18 31 5 42 -3 69
-51 18 -33 31 -139 17 -144 -6 -2 -3 -11 7 -21 9 -10 17 -27 18 -39 0 -12 3
-16 6 -10 3 9 10 10 24 3 10 -6 19 -7 19 -2 0 5 -11 14 -24 20 -21 10 -24 17
-23 74 0 35 -1 68 -2 73 -2 6 -3 29 -2 52 1 31 6 45 21 53 16 9 19 8 14 -7 -4
-14 -3 -14 7 2 18 29 42 45 58 40 8 -4 11 0 8 10 -8 20 10 29 20 10 5 -9 22
-17 39 -18 22 -2 29 2 28 16 -2 13 3 16 18 11 15 -4 19 -2 15 7 -2 8 -10 13
-16 11 -6 -1 -11 2 -11 8 0 5 5 10 10 10 6 0 10 6 10 13 0 8 7 14 15 14 9 0
14 -6 11 -14 -3 -7 -1 -13 4 -13 6 0 10 8 10 19 0 10 7 24 15 31 18 15 20 51
3 69 -11 10 -9 12 6 9 10 -1 21 3 23 10 3 6 -2 12 -11 12 -9 0 -16 5 -16 11 0
6 7 8 15 5 9 -3 18 1 22 10 8 21 -6 32 -17 14 -7 -11 -10 -1 -10 33 0 44 12
62 23 35 3 -8 6 -7 6 4 1 9 -3 20 -9 23 -5 3 -10 11 -10 16 0 6 5 7 10 4 22
-14 29 7 9 24 -13 11 -19 23 -15 30 6 8 15 5 31 -13 32 -35 40 -17 12 25 -29
43 -40 68 -42 96 0 12 -11 31 -24 42 -13 12 -19 21 -13 21 6 0 13 10 15 23 2
12 3 10 2 -7 -2 -27 -1 -28 12 -11 12 18 15 76 3 72 -6 -2 -10 8 -10 28 0 8 7
15 16 15 13 0 15 7 12 32 -6 35 20 77 34 55 6 -9 8 -9 8 1 0 9 15 2 39 -17 21
-17 42 -27 46 -23 5 4 5 1 1 -6 -5 -9 -1 -15 13 -19 12 -3 21 -9 21 -13 0 -4
11 -12 25 -18 14 -6 25 -18 25 -27 0 -8 6 -15 14 -15 8 0 16 -7 20 -15 4 -11
13 -14 32 -9 18 5 25 3 23 -7 -3 -21 12 -50 22 -43 6 3 15 1 22 -4 7 -5 27
-13 45 -17 17 -3 32 -10 32 -14 0 -8 79 -36 93 -33 4 1 7 -3 7 -9 0 -5 5 -7
10 -4 6 3 10 1 10 -5 0 -6 6 -10 13 -9 6 1 19 0 27 -4 23 -8 95 -23 160 -31
14 -2 29 -1 35 2 5 4 51 7 102 8 51 2 97 6 103 9 5 3 15 3 20 0 6 -3 10 -2 10
3 0 15 34 9 42 -8 5 -12 7 -12 7 3 1 9 7 18 14 18 46 5 55 7 66 13 6 4 30 9
53 12 24 3 45 10 49 16 3 5 8 9 10 7 2 -1 13 0 24 3 11 2 24 5 28 6 4 1 15 8
23 17 9 8 19 13 24 10 5 -3 11 -1 15 5 3 5 21 17 40 26 19 9 35 23 35 31 0 8
5 11 10 8 6 -3 10 -1 10 4 0 6 3 10 8 10 23 -4 42 3 42 15 0 8 9 17 19 21 11
3 23 14 26 24 3 12 14 17 29 16 16 -2 23 2 22 13 0 9 5 17 12 18 6 1 17 2 23
3 5 0 8 5 5 10 -3 5 15 22 41 37 27 15 50 31 53 35 3 4 20 6 38 5 23 -2 31 2
28 11 -5 12 22 33 41 33 5 0 14 -12 21 -27 12 -28 12 -28 7 7 -3 19 -1 30 3
23 5 -8 12 -9 22 -2 13 8 13 10 0 19 -13 8 -12 10 4 10 15 0 17 -4 10 -22z
m44 -17 c-4 -19 -22 -18 -26 2 -2 7 4 14 13 14 9 0 15 -7 13 -16z m-28 -41 c0
-16 -4 -30 -10 -30 -5 0 -10 14 -10 30 0 17 5 30 10 30 6 0 10 -13 10 -30z
m37 -2 c-3 -8 -6 -5 -6 6 -1 11 2 17 5 13 3 -3 4 -12 1 -19z m-20 -20 c-3 -8
-6 -5 -6 6 -1 11 2 17 5 13 3 -3 4 -12 1 -19z m-1964 -38 c-5 -19 -23 -39 -23
-25 0 9 20 45 24 45 2 0 2 -9 -1 -20z m1954 -92 c-3 -7 -5 -2 -5 12 0 14 2 19
5 13 2 -7 2 -19 0 -25z m-20 -10 c-3 -8 -6 -5 -6 6 -1 11 2 17 5 13 3 -3 4
-12 1 -19z m-2 -108 c-3 -5 -2 -10 4 -10 6 0 8 -7 4 -16 -5 -15 -7 -15 -15 0
-8 15 -4 36 8 36 3 0 2 -4 -1 -10z m2295 -200 c0 -5 -5 -10 -11 -10 -5 0 -7 5
-4 10 3 6 8 10 11 10 2 0 4 -4 4 -10z m-2303 -36 c-3 -3 -12 -4 -19 -1 -8 3
-5 6 6 6 11 1 17 -2 13 -5z m-80 -130 c-3 -3 -12 -4 -19 -1 -8 3 -5 6 6 6 11
1 17 -2 13 -5z m-32 -14 c3 -5 -1 -10 -9 -10 -9 0 -16 5 -16 10 0 6 4 10 9 10
6 0 13 -4 16 -10z m120 -160 c-3 -5 -11 -10 -16 -10 -6 0 -7 5 -4 10 3 6 11
10 16 10 6 0 7 -4 4 -10z"/>
<path d="M4190 10645 c-10 -13 -9 -15 9 -15 11 0 21 4 21 9 0 18 -18 21 -30 6z"/>
<path d="M4015 10590 c-3 -5 2 -21 11 -35 19 -30 29 -33 14 -5 -7 14 -7 20 0
20 5 0 10 7 10 15 0 17 -25 21 -35 5z"/>
<path d="M4206 10563 c-6 -14 -5 -15 5 -6 7 7 10 15 7 18 -3 3 -9 -2 -12 -12z"/>
<path d="M4631 10364 c0 -11 3 -14 6 -6 3 7 2 16 -1 19 -3 4 -6 -2 -5 -13z"/>
<path d="M4690 10324 c0 -8 5 -12 10 -9 6 4 8 11 5 16 -9 14 -15 11 -15 -7z"/>
<path d="M4770 10329 c0 -5 -4 -8 -9 -5 -5 4 -7 -3 -4 -14 7 -28 18 -25 21 5
1 14 0 25 -3 25 -3 0 -5 -5 -5 -11z"/>
<path d="M4751 10154 c0 -11 3 -14 6 -6 3 7 2 16 -1 19 -3 4 -6 -2 -5 -13z"/>
<path d="M4782 10000 c0 -14 2 -19 5 -12 2 6 2 18 0 25 -3 6 -5 1 -5 -13z"/>
<path d="M4791 9834 c0 -11 3 -14 6 -6 3 7 2 16 -1 19 -3 4 -6 -2 -5 -13z"/>
<path d="M4815 9830 c-3 -5 -1 -10 4 -10 6 0 11 5 11 10 0 6 -2 10 -4 10 -3 0
-8 -4 -11 -10z"/>
<path d="M4840 9730 c0 -5 5 -10 10 -10 6 0 10 5 10 10 0 6 -4 10 -10 10 -5 0
-10 -4 -10 -10z"/>
<path d="M4320 9245 c-18 -22 -7 -34 13 -15 10 10 14 21 9 24 -5 3 -15 -1 -22
-9z"/>
<path d="M4230 9229 c0 -5 5 -7 10 -4 6 3 10 8 10 11 0 2 -4 4 -10 4 -5 0 -10
-5 -10 -11z"/>
<path d="M4325 9170 c-3 -5 -1 -10 4 -10 6 0 11 5 11 10 0 6 -2 10 -4 10 -3 0
-8 -4 -11 -10z"/>
<path d="M3280 9140 c-4 -28 -6 -80 -3 -62 2 12 9 20 14 17 12 -8 11 16 -1 35
-5 8 -10 13 -10 10z"/>
<path d="M3210 9096 c0 -9 5 -16 10 -16 6 0 10 4 10 9 0 6 -4 13 -10 16 -5 3
-10 -1 -10 -9z"/>
<path d="M5112 9076 c7 -8 15 -12 17 -11 5 6 -10 25 -20 25 -5 0 -4 -6 3 -14z"/>
<path d="M5148 9073 c7 -3 16 -2 19 1 4 3 -2 6 -13 5 -11 0 -14 -3 -6 -6z"/>
<path d="M5095 9060 c-3 -5 -1 -10 4 -10 6 0 11 5 11 10 0 6 -2 10 -4 10 -3 0
-8 -4 -11 -10z"/>
<path d="M3310 9051 c0 -6 4 -13 10 -16 6 -3 7 1 4 9 -7 18 -14 21 -14 7z"/>
<path d="M4186 9043 c-6 -14 -5 -15 5 -6 7 7 10 15 7 18 -3 3 -9 -2 -12 -12z"/>
<path d="M5212 9010 c0 -19 2 -27 5 -17 2 9 2 25 0 35 -3 9 -5 1 -5 -18z"/>
<path d="M5180 9013 c0 -13 5 -23 10 -23 13 0 13 11 0 30 -8 12 -10 11 -10 -7z"/>
<path d="M3271 8994 c0 -11 3 -14 6 -6 3 7 2 16 -1 19 -3 4 -6 -2 -5 -13z"/>
<path d="M4212 8980 c0 -14 2 -19 5 -12 2 6 2 18 0 25 -3 6 -5 1 -5 -13z"/>
<path d="M5085 8990 c-3 -5 1 -10 9 -10 9 0 16 5 16 10 0 6 -4 10 -9 10 -6 0
-13 -4 -16 -10z"/>
<path d="M3180 8967 c0 -10 8 -17 18 -17 9 0 13 4 7 8 -5 4 -13 11 -17 16 -5
5 -8 2 -8 -7z"/>
<path d="M5110 8961 c0 -5 -3 -17 -7 -27 -4 -11 -3 -15 4 -11 14 9 24 47 12
47 -5 0 -9 -4 -9 -9z"/>
<path d="M4100 8936 c0 -9 5 -16 10 -16 6 0 10 4 10 9 0 6 -4 13 -10 16 -5 3
-10 -1 -10 -9z"/>
<path d="M3202 8920 c-15 -24 -15 -30 -2 -30 6 0 10 7 10 15 0 8 5 15 10 15 6
0 10 5 10 10 0 16 -14 11 -28 -10z"/>
<path d="M2251 8914 c0 -11 3 -14 6 -6 3 7 2 16 -1 19 -3 4 -6 -2 -5 -13z"/>
<path d="M3226 8895 c-4 -11 1 -15 19 -15 14 0 25 -7 28 -17 3 -10 4 -6 4 9
-1 15 -4 25 -8 22 -4 -2 -10 0 -14 6 -9 15 -22 12 -29 -5z"/>
<path d="M4266 8884 c-9 -24 -7 -31 4 -14 9 13 11 13 20 0 5 -8 10 -10 10 -4
0 6 -6 17 -14 23 -11 9 -15 8 -20 -5z"/>
<path d="M4222 8860 c0 -14 2 -19 5 -12 2 6 2 18 0 25 -3 6 -5 1 -5 -13z"/>
<path d="M2246 8812 c-3 -6 -1 -14 5 -17 14 -9 20 -2 10 14 -6 8 -11 9 -15 3z"/>
<path d="M4162 8800 c0 -14 2 -19 5 -12 2 6 2 18 0 25 -3 6 -5 1 -5 -13z"/>
<path d="M2337 8719 c7 -7 15 -10 18 -7 3 3 -2 9 -12 12 -14 6 -15 5 -6 -5z"/>
<path d="M4181 8700 c0 -8 4 -22 9 -30 12 -18 12 -2 0 25 -6 13 -9 15 -9 5z"/>
<path d="M2470 8673 c0 -4 5 -15 10 -23 8 -13 10 -13 10 2 0 9 -4 20 -10 23
-5 3 -10 3 -10 -2z"/>
<path d="M3020 8660 c0 -5 5 -10 10 -10 6 0 10 5 10 10 0 6 -4 10 -10 10 -5 0
-10 -4 -10 -10z"/>
<path d="M2660 8626 c5 -13 7 -26 5 -28 -2 -2 7 -8 21 -15 21 -10 24 -9 25 10
0 12 3 16 6 9 4 -10 8 -10 19 -1 17 14 19 42 2 36 -7 -2 -21 0 -32 5 -13 7
-16 7 -12 -1 4 -6 3 -11 -3 -11 -5 0 -13 5 -16 10 -13 20 -24 10 -15 -14z"/>
<path d="M5200 8639 c0 -4 3 -15 6 -24 5 -13 8 -14 15 -3 13 20 11 35 -6 35
-8 0 -15 -4 -15 -8z"/>
<path d="M4430 8636 c0 -2 7 -6 15 -10 8 -3 15 -1 15 4 0 6 -7 10 -15 10 -8 0
-15 -2 -15 -4z"/>
<path d="M2791 8605 c-1 -25 15 -52 26 -42 4 5 2 11 -4 15 -6 4 -13 16 -16 27
l-5 20 -1 -20z"/>
<path d="M2630 8594 c0 -8 5 -12 10 -9 6 4 8 11 5 16 -9 14 -15 11 -15 -7z"/>
<path d="M2760 8590 c0 -5 5 -10 11 -10 5 0 7 5 4 10 -3 6 -8 10 -11 10 -2 0
-4 -4 -4 -10z"/>
<path d="M2828 8578 c-2 -15 -9 -22 -21 -22 -10 1 -17 -5 -17 -15 0 -14 7 -17
32 -13 38 6 58 23 58 49 0 14 -2 15 -9 5 -7 -11 -9 -11 -14 2 -9 23 -25 20
-29 -6z"/>
<path d="M2890 8569 c0 -11 4 -18 10 -14 5 3 7 12 3 20 -7 21 -13 19 -13 -6z"/>
<path d="M2600 8572 c0 -5 7 -15 15 -22 11 -9 15 -9 15 -1 0 7 5 9 13 5 7 -4
9 -3 4 2 -5 5 -12 9 -15 9 -4 0 -13 4 -19 8 -7 5 -13 4 -13 -1z"/>
<path d="M2920 8570 c0 -5 5 -10 11 -10 5 0 7 5 4 10 -3 6 -8 10 -11 10 -2 0
-4 -4 -4 -10z"/>
<path d="M2720 8561 c0 -5 -11 -8 -25 -5 -18 3 -25 0 -25 -11 0 -11 6 -14 24
-9 14 3 29 0 37 -9 20 -21 49 -9 49 20 0 22 -2 24 -15 13 -10 -9 -15 -9 -15
-1 0 6 -7 11 -15 11 -8 0 -15 -4 -15 -9z"/>
<path d="M4445 8560 c3 -5 8 -10 11 -10 2 0 4 5 4 10 0 6 -5 10 -11 10 -5 0
-7 -4 -4 -10z"/>
<path d="M4926 8550 c-11 -3 -15 -9 -10 -13 10 -6 42 9 34 16 -3 3 -14 1 -24
-3z"/>
<path d="M2880 8530 c0 -5 5 -10 10 -10 6 0 10 5 10 10 0 6 -4 10 -10 10 -5 0
-10 -4 -10 -10z"/>
<path d="M4970 8530 c0 -5 5 -10 11 -10 5 0 7 5 4 10 -3 6 -8 10 -11 10 -2 0
-4 -4 -4 -10z"/>
<path d="M4831 8514 c0 -11 3 -14 6 -6 3 7 2 16 -1 19 -3 4 -6 -2 -5 -13z"/>
<path d="M4360 8450 c0 -5 5 -10 10 -10 6 0 10 5 10 10 0 6 -4 10 -10 10 -5 0
-10 -4 -10 -10z"/>
<path d="M1990 8410 c0 -5 5 -10 11 -10 5 0 7 5 4 10 -3 6 -8 10 -11 10 -2 0
-4 -4 -4 -10z"/>
<path d="M1921 8164 c0 -11 3 -14 6 -6 3 7 2 16 -1 19 -3 4 -6 -2 -5 -13z"/>
<path d="M5461 8034 c0 -11 3 -14 6 -6 3 7 2 16 -1 19 -3 4 -6 -2 -5 -13z"/>
<path d="M3400 7936 c0 -8 6 -17 13 -19 6 -3 2 -6 -10 -6 -13 -1 -23 3 -23 8
0 24 -114 -28 -125 -57 -7 -18 5 -62 16 -62 5 0 9 -7 9 -15 0 -11 9 -15 33
-14 19 2 53 -9 82 -24 168 -88 181 -92 310 -91 111 0 124 2 169 27 27 15 54
27 61 27 7 0 26 7 44 16 30 15 141 36 150 28 2 -2 -1 -10 -7 -17 -7 -8 -9 -17
-5 -21 4 -3 8 -17 10 -29 6 -39 12 -46 35 -42 13 3 37 8 54 11 46 8 75 53 79
122 3 43 2 50 -4 27 l-9 -30 -2 35 c-1 21 -4 27 -7 15 -2 -11 -6 -30 -9 -43
-2 -13 -9 -20 -14 -17 -6 4 -7 18 -4 33 9 36 -4 23 -15 -16 -6 -20 -5 -34 2
-41 8 -8 6 -11 -6 -11 -9 0 -17 4 -17 9 0 5 -9 7 -19 4 -12 -3 -17 -11 -14
-19 3 -9 -2 -14 -15 -14 -18 0 -19 3 -9 35 7 24 13 31 19 23 6 -10 8 -10 8 2
0 13 1 13 10 0 8 -13 10 -13 10 1 0 9 -7 19 -15 23 -8 3 -15 14 -15 24 0 10
-6 24 -12 31 -11 11 -10 12 2 6 13 -8 13 -7 1 8 -7 9 -20 17 -27 17 -8 0 -14
4 -14 10 0 5 -14 17 -31 26 -19 9 -28 11 -24 4 5 -9 1 -10 -14 -5 -11 3 -21 2
-21 -3 0 -14 -33 -9 -43 6 -13 20 -29 14 -18 -7 9 -15 7 -20 -10 -24 -12 -3
-18 -10 -15 -16 8 -12 -24 -30 -43 -23 -9 3 -11 0 -6 -8 6 -10 4 -12 -8 -7
-10 4 -21 -3 -31 -19 -9 -13 -22 -24 -29 -23 -9 0 -9 2 1 6 24 9 12 23 -20 23
-25 0 -29 -3 -18 -10 12 -8 11 -10 -7 -10 -15 0 -23 6 -24 18 0 10 -3 12 -6 5
-7 -19 -31 -16 -36 5 -4 13 -5 11 -6 -5 0 -13 -7 -23 -15 -23 -8 0 -17 -6 -19
-12 -4 -10 -6 -10 -6 0 -1 6 -8 12 -16 12 -8 0 -15 9 -15 20 0 11 -5 20 -11
20 -6 0 -9 -7 -6 -15 4 -8 2 -17 -3 -20 -5 -3 -11 4 -15 15 -4 11 -11 18 -16
15 -5 -3 -19 0 -31 6 -21 11 -22 11 -9 -5 8 -9 11 -19 8 -23 -4 -3 -11 6 -18
20 -7 15 -17 23 -25 20 -11 -4 -12 2 -8 26 4 20 3 31 -5 31 -6 0 -10 -6 -8
-12 1 -8 -10 -14 -25 -16 -22 -3 -28 1 -28 15 0 10 -9 26 -20 36 -16 13 -20
14 -20 3z"/>
<path d="M3450 7940 c0 -5 5 -10 11 -10 5 0 7 5 4 10 -3 6 -8 10 -11 10 -2 0
-4 -4 -4 -10z"/>
<path d="M3917 7903 c-11 -11 -8 -45 4 -38 6 4 8 9 5 13 -3 3 2 11 12 18 15
12 15 13 1 14 -9 0 -19 -3 -22 -7z"/>
<path d="M4270 7864 c0 -8 5 -12 10 -9 6 3 10 10 10 16 0 5 -4 9 -10 9 -5 0
-10 -7 -10 -16z"/>
<path d="M1995 7790 c3 -5 8 -10 11 -10 2 0 4 5 4 10 0 6 -5 10 -11 10 -5 0
-7 -4 -4 -10z"/>
<path d="M3130 7758 c0 -73 108 -139 153 -93 8 8 17 11 21 8 3 -4 6 -1 6 5 0
6 -12 10 -27 9 -33 -3 -75 35 -67 61 4 10 3 13 -3 6 -14 -18 -41 -23 -52 -10
-6 7 -9 15 -6 18 3 3 -1 11 -10 18 -13 11 -15 8 -15 -22z"/>
<path d="M5363 7720 c-9 -13 -9 -21 -2 -26 6 -3 9 -15 6 -25 -6 -24 11 -36 20
-13 3 9 0 26 -7 37 -9 15 -10 22 -1 25 6 2 11 8 11 13 0 15 -15 10 -27 -11z"/>
<path d="M1990 7689 c0 -5 5 -7 10 -4 6 3 10 8 10 11 0 2 -4 4 -10 4 -5 0 -10
-5 -10 -11z"/>
<path d="M4100 7660 c-8 -5 -12 -11 -9 -14 2 -3 11 -1 19 4 8 5 12 11 9 14 -2
3 -11 1 -19 -4z"/>
<path d="M2045 7650 c3 -5 8 -10 11 -10 2 0 4 5 4 10 0 6 -5 10 -11 10 -5 0
-7 -4 -4 -10z"/>
<path d="M5322 7610 c0 -19 2 -27 5 -17 2 9 2 25 0 35 -3 9 -5 1 -5 -18z"/>
<path d="M2042 7599 c-7 -11 -9 -25 -5 -32 4 -7 10 0 15 18 9 36 6 40 -10 14z"/>
<path d="M5301 7474 c0 -11 3 -14 6 -6 3 7 2 16 -1 19 -3 4 -6 -2 -5 -13z"/>
<path d="M5310 7435 c0 -8 2 -15 4 -15 2 0 6 7 10 15 3 8 1 15 -4 15 -6 0 -10
-7 -10 -15z"/>
<path d="M5232 7410 c0 -14 2 -19 5 -12 2 6 2 18 0 25 -3 6 -5 1 -5 -13z"/>
<path d="M5210 7270 c0 -5 5 -10 10 -10 6 0 10 5 10 10 0 6 -4 10 -10 10 -5 0
-10 -4 -10 -10z"/>
<path d="M5186 7215 c-3 -8 -1 -15 4 -15 6 0 10 7 10 15 0 8 -2 15 -4 15 -2 0
-6 -7 -10 -15z"/>
<path d="M2205 7210 c-3 -5 -1 -10 4 -10 6 0 11 5 11 10 0 6 -2 10 -4 10 -3 0
-8 -4 -11 -10z"/>
<path d="M3432 7174 c-2 -19 -1 -34 2 -34 7 0 13 61 6 65 -3 2 -7 -12 -8 -31z"/>
<path d="M3890 7195 c-17 -21 -9 -27 13 -10 10 7 14 16 9 19 -5 3 -15 -1 -22
-9z"/>
<path d="M3376 7185 c-3 -9 -6 -24 -5 -33 0 -9 5 -4 10 12 9 32 6 48 -5 21z"/>
<path d="M4019 7183 c-1 -13 -2 -29 -3 -35 -1 -7 5 -12 12 -10 6 1 12 -3 12
-9 0 -6 -9 -9 -20 -6 -10 3 -19 2 -18 -2 2 -20 -4 -31 -17 -31 -10 0 -15 10
-14 33 0 27 2 29 9 12 8 -19 9 -19 9 3 1 13 -6 30 -14 38 -13 14 -15 11 -15
-21 0 -26 -3 -34 -12 -29 -10 6 -10 4 0 -7 6 -7 12 -29 12 -48 l-1 -36 -14 33
c-14 31 -30 46 -19 17 9 -21 -2 -19 -26 7 -16 18 -23 20 -29 9 -6 -8 -16 -11
-31 -6 -20 6 -22 4 -16 -11 7 -17 6 -17 -12 1 -23 24 -22 25 14 29 16 2 27 7
24 12 -3 5 -9 7 -15 5 -13 -5 -23 -4 -57 3 -16 4 -28 2 -28 -4 0 -5 -5 -10
-11 -10 -6 0 -8 9 -4 21 5 14 2 25 -6 30 -24 15 -29 10 -19 -17 10 -25 9 -26
-15 -21 -15 2 -32 -1 -40 -9 -9 -9 -16 -10 -20 -4 -3 5 -16 10 -27 10 -12 0
-19 -3 -15 -6 9 -9 -22 -38 -44 -41 -15 -2 -19 4 -20 25 0 24 -1 25 -9 7 -5
-11 -9 -15 -10 -10 -1 6 -6 -1 -12 -15 l-11 -25 -6 33 c-3 18 -9 33 -13 32 -5
0 -17 0 -28 0 -12 0 -17 -5 -14 -14 3 -8 1 -17 -5 -21 -6 -3 -11 2 -11 13 0
23 -45 24 -62 2 -8 -12 -9 -11 -4 3 3 11 9 31 12 45 5 22 4 25 -7 15 -7 -7
-30 -13 -50 -13 -31 0 -36 -3 -32 -18 3 -15 -3 -17 -40 -17 -25 0 -43 -3 -41
-6 4 -8 -42 -29 -62 -29 -9 0 -27 -9 -41 -20 -16 -12 -34 -18 -45 -15 -10 4
-18 2 -18 -4 0 -5 -9 -8 -20 -6 -11 2 -20 -1 -20 -7 0 -5 -7 -8 -14 -5 -10 4
-13 1 -9 -9 3 -8 -1 -14 -11 -14 -9 0 -16 5 -16 10 0 6 -4 10 -10 10 -5 0 -10
-7 -10 -15 0 -10 -10 -15 -32 -15 -23 0 -29 -3 -21 -11 8 -8 5 -18 -10 -36
-21 -23 -43 -88 -27 -78 5 3 11 -1 14 -7 3 -7 3 -3 0 10 -8 31 4 28 18 -5 9
-22 12 -24 15 -10 3 9 8 17 13 17 5 0 7 -7 3 -16 -5 -14 -3 -14 16 -3 11 8 21
22 21 33 0 16 5 18 38 12 58 -11 125 -10 152 1 14 6 50 14 80 17 79 10 83 11
100 21 16 11 523 11 600 1 25 -4 65 -9 90 -12 24 -3 51 -9 60 -13 8 -4 31 -6
50 -5 26 2 39 -4 57 -24 21 -24 22 -25 16 -4 -5 20 -2 22 23 18 53 -6 61 -14
58 -52 -2 -32 -1 -34 11 -17 12 14 15 15 15 3 1 -10 4 -9 10 5 7 16 9 17 9 3
2 -30 -11 -48 -33 -49 -17 -1 -18 -2 -3 -6 13 -3 16 -10 11 -26 -6 -20 -5 -20
10 -8 9 8 14 21 11 29 -4 10 0 13 15 9 16 -4 18 -2 10 13 -9 17 -8 18 21 3 28
-14 31 -14 44 3 13 17 16 17 25 4 9 -12 10 -12 8 5 -2 15 3 21 25 23 21 3 27
-1 27 -17 0 -11 4 -22 10 -26 5 -3 7 -13 4 -23 -5 -14 -4 -15 5 -2 9 12 11 11
11 -7 0 -22 1 -22 18 -5 9 9 28 31 41 47 l24 30 -5 -27 c-3 -15 -1 -25 3 -22
5 3 9 21 9 40 0 24 -5 34 -15 34 -9 0 -15 6 -14 13 4 37 -32 78 -43 46 -2 -5
-11 -7 -21 -4 -13 6 -15 11 -6 28 10 17 9 19 -5 14 -8 -3 -22 0 -30 8 -11 11
-16 12 -19 2 -3 -7 -6 -5 -6 6 -1 17 -12 20 -66 17 -18 0 -39 7 -53 20 -12 11
-22 17 -22 13 0 -4 -5 0 -11 10 -5 9 -16 17 -24 17 -8 0 -19 9 -25 20 -6 11
-15 18 -20 15 -5 -3 -11 -1 -15 5 -3 5 -20 10 -36 10 -21 0 -28 4 -23 12 5 8
2 9 -10 5 -12 -5 -20 1 -28 18 -13 28 -28 24 -29 -8 0 -15 -6 -8 -19 23 -15
35 -19 40 -21 23z m-652 -110 c-3 -10 -5 -2 -5 17 0 19 2 27 5 18 2 -10 2 -26
0 -35z m103 27 c0 -11 -4 -20 -10 -20 -5 0 -10 9 -10 20 0 11 5 20 10 20 6 0
10 -9 10 -20z m-77 -10 c-3 -11 -7 -20 -9 -20 -2 0 -4 9 -4 20 0 11 4 20 9 20
5 0 7 -9 4 -20z m647 6 c0 -8 -4 -18 -10 -21 -5 -3 -10 3 -10 14 0 12 5 21 10
21 6 0 10 -6 10 -14z m-605 -26 c3 -5 1 -10 -4 -10 -6 0 -11 5 -11 10 0 6 2
10 4 10 3 0 8 -4 11 -10z m1078 -265 c9 -22 -6 -25 -27 -4 -19 19 -19 19 1 19
12 0 23 -7 26 -15z"/>
<path d="M3941 7174 c0 -11 3 -14 6 -6 3 7 2 16 -1 19 -3 4 -6 -2 -5 -13z"/>
<path d="M3400 7170 c-12 -7 -12 -12 -3 -21 10 -10 14 -9 19 5 8 22 2 27 -16
16z"/>
<path d="M3922 7140 c0 -14 2 -19 5 -12 2 6 2 18 0 25 -3 6 -5 1 -5 -13z"/>
<path d="M2330 6930 c0 -5 4 -10 9 -10 6 0 13 5 16 10 3 6 -1 10 -9 10 -9 0
-16 -4 -16 -10z"/>
<path d="M3145 6880 c3 -5 8 -10 11 -10 2 0 4 5 4 10 0 6 -5 10 -11 10 -5 0
-7 -4 -4 -10z"/>
<path d="M3058 6873 c7 -3 16 -2 19 1 4 3 -2 6 -13 5 -11 0 -14 -3 -6 -6z"/>
<path d="M3102 6855 c0 -16 2 -22 5 -12 2 9 2 23 0 30 -3 6 -5 -1 -5 -18z"/>
<path d="M4210 6855 c0 -14 2 -25 4 -25 2 0 6 11 8 25 3 14 1 25 -3 25 -5 0
-9 -11 -9 -25z"/>
<path d="M4121 6834 c0 -11 3 -14 6 -6 3 7 2 16 -1 19 -3 4 -6 -2 -5 -13z"/>
<path d="M4162 6825 c0 -16 2 -22 5 -12 2 9 2 23 0 30 -3 6 -5 -1 -5 -18z"/>
<path d="M3072 6820 c0 -14 2 -19 5 -12 2 6 2 18 0 25 -3 6 -5 1 -5 -13z"/>
<path d="M3191 6774 c0 -11 3 -14 6 -6 3 7 2 16 -1 19 -3 4 -6 -2 -5 -13z"/>
<path d="M4120 6774 c0 -8 5 -12 10 -9 6 4 8 11 5 16 -9 14 -15 11 -15 -7z"/>
<path d="M4156 6773 c-6 -14 -5 -15 5 -6 7 7 10 15 7 18 -3 3 -9 -2 -12 -12z"/>
<path d="M3150 6766 c0 -2 7 -9 15 -16 9 -7 15 -8 15 -2 0 5 -7 12 -15 16 -8
3 -15 4 -15 2z"/>
<path d="M4330 6760 c-9 -6 -10 -10 -3 -10 6 0 15 5 18 10 8 12 4 12 -15 0z"/>
<path d="M3382 6739 c-15 -24 -13 -32 7 -20 7 5 11 16 9 25 -2 14 -5 13 -16
-5z"/>
<path d="M3290 6726 c0 -27 25 -41 54 -30 18 7 22 29 6 39 -5 3 -10 1 -10 -4
0 -16 -16 -13 -34 5 -15 14 -16 13 -16 -10z"/>
<path d="M4156 6733 c-6 -14 -5 -15 5 -6 7 7 10 15 7 18 -3 3 -9 -2 -12 -12z"/>
<path d="M4240 6743 c0 -15 18 -35 23 -27 3 5 -1 15 -9 22 -8 7 -14 9 -14 5z"/>
<path d="M4295 6740 c-3 -5 -1 -10 4 -10 6 0 11 5 11 10 0 6 -2 10 -4 10 -3 0
-8 -4 -11 -10z"/>
<path d="M4210 6709 c0 -5 5 -7 10 -4 6 3 10 8 10 11 0 2 -4 4 -10 4 -5 0 -10
-5 -10 -11z"/>
<path d="M3265 6700 c3 -5 8 -10 11 -10 2 0 4 5 4 10 0 6 -5 10 -11 10 -5 0
-7 -4 -4 -10z"/>
<path d="M3401 6696 c-16 -19 -14 -23 18 -28 15 -2 26 3 29 12 3 8 1 12 -3 8
-4 -4 -13 -1 -20 8 -10 14 -12 14 -24 0z"/>
<path d="M4060 6700 c0 -5 5 -10 11 -10 5 0 7 5 4 10 -3 6 -8 10 -11 10 -2 0
-4 -4 -4 -10z"/>
<path d="M3461 6669 c-11 -24 -18 -29 -36 -25 -19 5 -22 2 -18 -18 4 -20 0
-24 -24 -28 -17 -2 -35 2 -42 9 -16 17 -31 16 -31 -2 0 -19 -7 -19 -26 0 -9 8
-12 21 -9 27 4 7 0 5 -8 -4 -8 -10 -19 -18 -26 -18 -14 0 -15 -27 -1 -35 6 -3
10 2 11 12 0 11 3 13 6 5 3 -7 -1 -19 -7 -27 -15 -17 1 -20 17 -4 20 20 43 2
43 -31 0 -29 1 -30 16 -15 9 9 19 13 22 10 4 -3 0 -10 -8 -16 -13 -8 -13 -10
0 -19 10 -6 16 -6 18 0 5 13 54 1 69 -17 7 -9 13 -11 18 -3 3 5 12 7 18 3 7
-5 30 -9 52 -10 64 -4 70 -5 77 -17 5 -7 8 -7 8 2 0 20 249 13 270 -7 10 -10
15 -10 18 -2 2 6 9 8 15 4 6 -4 30 -6 54 -4 36 2 43 -1 44 -16 0 -16 1 -16 9
2 8 18 9 18 9 2 1 -10 7 -17 14 -14 6 2 11 14 9 25 -3 24 12 30 22 10 4 -7 4
-3 2 8 -2 15 4 26 18 34 33 17 51 50 34 62 -9 7 -7 8 7 4 19 -5 21 -2 17 29
-3 21 -10 35 -18 35 -12 0 -12 -4 -2 -20 7 -10 9 -23 5 -27 -5 -4 -12 -1 -16
6 -7 11 -10 11 -14 0 -3 -8 -6 -5 -6 8 -1 33 -15 36 -62 11 -53 -27 -106 -32
-112 -9 -4 13 -5 13 -6 -2 -1 -14 -5 -16 -18 -9 -10 5 -27 6 -38 2 -14 -5 -27
-1 -42 13 -13 11 -23 15 -23 9 0 -7 -4 -12 -10 -12 -5 0 -10 6 -10 13 0 8 -7
14 -15 14 -8 0 -15 -5 -15 -10 0 -5 -13 -7 -30 -5 -16 3 -30 1 -30 -4 0 -5
-11 -6 -24 -2 -14 3 -31 2 -38 -2 -23 -15 -37 -13 -43 6 -3 11 -12 17 -20 14
-7 -3 -15 2 -18 13 -3 11 -5 7 -6 -12 -1 -27 -2 -28 -18 -13 -13 14 -14 20 -4
32 9 11 9 16 0 21 -6 4 -15 1 -20 -6 -4 -7 -11 -10 -15 -6 -4 4 -2 13 4 19 13
13 16 38 4 38 -4 0 -13 -14 -21 -31z m19 -64 c0 -8 -4 -15 -10 -15 -5 0 -10 7
-10 15 0 8 5 15 10 15 6 0 10 -7 10 -15z"/>
<path d="M4152 6686 c7 -8 15 -12 17 -11 5 6 -10 25 -20 25 -5 0 -4 -6 3 -14z"/>
<path d="M4180 6675 c0 -16 -7 -41 -15 -55 -19 -33 -19 -45 0 -26 8 8 15 19
15 25 0 6 5 19 11 30 9 13 9 23 1 37 -10 17 -11 16 -12 -11z"/>
<path d="M4955 6690 c3 -5 10 -10 16 -10 5 0 9 5 9 10 0 6 -7 10 -16 10 -8 0
-12 -4 -9 -10z"/>
<path d="M4110 6666 c0 -11 8 -16 28 -15 15 0 21 3 12 6 -8 3 -21 10 -27 16
-9 7 -13 5 -13 -7z"/>
<path d="M3265 6660 c3 -5 8 -10 11 -10 2 0 4 5 4 10 0 6 -5 10 -11 10 -5 0
-7 -4 -4 -10z"/>
<path d="M3355 6660 c-3 -5 -1 -18 4 -27 9 -16 10 -14 11 10 0 28 -5 34 -15
17z"/>
<path d="M3204 6609 c-1 -20 2 -26 7 -17 11 16 12 48 2 48 -5 0 -8 -14 -9 -31z"/>
<path d="M3645 6620 c3 -5 10 -10 16 -10 5 0 9 5 9 10 0 6 -7 10 -16 10 -8 0
-12 -4 -9 -10z"/>
<path d="M4167 6559 c7 -7 15 -10 18 -7 3 3 -2 9 -12 12 -14 6 -15 5 -6 -5z"/>
<path d="M3280 6538 c0 -19 2 -20 10 -8 13 19 13 30 0 30 -5 0 -10 -10 -10
-22z"/>
<path d="M4145 6519 c-4 -6 -5 -12 -2 -15 2 -3 7 2 10 11 7 17 1 20 -8 4z"/>
<path d="M2565 6510 c-3 -5 -1 -10 4 -10 6 0 11 5 11 10 0 6 -2 10 -4 10 -3 0
-8 -4 -11 -10z"/>
<path d="M2832 6236 c7 -8 15 -12 17 -11 5 6 -10 25 -20 25 -5 0 -4 -6 3 -14z"/>
<path d="M2851 6174 c0 -11 3 -14 6 -6 3 7 2 16 -1 19 -3 4 -6 -2 -5 -13z"/>
<path d="M4455 6120 c3 -5 8 -10 11 -10 2 0 4 5 4 10 0 6 -5 10 -11 10 -5 0
-7 -4 -4 -10z"/>
<path d="M4245 5970 c4 -6 11 -8 16 -5 14 9 11 15 -7 15 -8 0 -12 -5 -9 -10z"/>
<path d="M3141 5944 c0 -11 3 -14 6 -6 3 7 2 16 -1 19 -3 4 -6 -2 -5 -13z"/>
<path d="M3221 5944 c0 -11 3 -14 6 -6 3 7 2 16 -1 19 -3 4 -6 -2 -5 -13z"/>
<path d="M3381 5904 c0 -11 3 -14 6 -6 3 7 2 16 -1 19 -3 4 -6 -2 -5 -13z"/>
<path d="M3412 5865 c0 -16 2 -22 5 -12 2 9 2 23 0 30 -3 6 -5 -1 -5 -18z"/>
<path d="M3580 5880 c0 -5 5 -10 10 -10 6 0 10 5 10 10 0 6 -4 10 -10 10 -5 0
-10 -4 -10 -10z"/>
<path d="M2476 9325 c-3 -9 0 -15 9 -15 8 0 15 7 15 15 0 8 -4 15 -9 15 -5 0
-11 -7 -15 -15z"/>
<path d="M2511 9324 c0 -11 3 -14 6 -6 3 7 2 16 -1 19 -3 4 -6 -2 -5 -13z"/>
<path d="M2410 9210 c0 -5 5 -10 11 -10 5 0 7 5 4 10 -3 6 -8 10 -11 10 -2 0
-4 -4 -4 -10z"/>
<path d="M2501 9213 c-1 -17 16 -25 25 -12 4 7 3 9 -4 5 -5 -3 -13 0 -15 6 -4
9 -6 10 -6 1z"/>
<path d="M2371 9194 c0 -11 3 -14 6 -6 3 7 2 16 -1 19 -3 4 -6 -2 -5 -13z"/>
<path d="M2391 9173 c-1 -13 -5 -23 -11 -23 -5 0 -10 -7 -10 -15 0 -8 6 -12
14 -9 8 3 17 1 21 -5 10 -17 25 -13 25 6 0 9 -3 13 -7 9 -4 -4 -13 8 -19 26
-10 27 -13 29 -13 11z"/>
<path d="M2450 9130 c0 -11 4 -20 9 -20 5 0 7 9 4 20 -3 11 -7 20 -9 20 -2 0
-4 -9 -4 -20z"/>
<path d="M2390 9111 c0 -9 -8 -11 -22 -8 -18 5 -19 4 -7 -7 8 -8 25 -17 37
-21 22 -6 23 -5 12 17 -17 31 -20 34 -20 19z"/>
<path d="M2774 9099 c-3 -6 -1 -16 5 -22 8 -8 11 -5 11 11 0 24 -5 28 -16 11z"/>
<path d="M2430 9092 c0 -4 9 -13 20 -20 22 -13 27 -3 8 16 -14 14 -28 16 -28
4z"/>
<path d="M2652 9086 c1 -10 8 -17 13 -17 15 1 12 24 -3 29 -9 3 -13 -2 -10
-12z"/>
<path d="M2708 9093 c7 -3 16 -2 19 1 4 3 -2 6 -13 5 -11 0 -14 -3 -6 -6z"/>
<path d="M2378 9053 c7 -3 16 -2 19 1 4 3 -2 6 -13 5 -11 0 -14 -3 -6 -6z"/>
<path d="M4586 5652 c-3 -5 -8 -24 -11 -42 -3 -18 -8 -37 -11 -42 -3 -4 -1 -8
3 -8 10 0 36 90 29 97 -2 2 -7 0 -10 -5z"/>
<path d="M4535 5600 c3 -5 8 -10 11 -10 2 0 4 5 4 10 0 6 -5 10 -11 10 -5 0
-7 -4 -4 -10z"/>
<path d="M2770 5540 c0 -5 5 -10 10 -10 6 0 10 5 10 10 0 6 -4 10 -10 10 -5 0
-10 -4 -10 -10z"/>
<path d="M2810 5520 c0 -5 7 -7 15 -4 8 4 15 8 15 10 0 2 -7 4 -15 4 -8 0 -15
-4 -15 -10z"/>
<path d="M4613 5425 c0 -27 2 -38 4 -22 2 15 2 37 0 50 -2 12 -4 0 -4 -28z"/>
<path d="M2836 5435 c4 -8 10 -12 15 -9 11 6 2 24 -11 24 -5 0 -7 -7 -4 -15z"/>
<path d="M4551 5434 c0 -11 3 -14 6 -6 3 7 2 16 -1 19 -3 4 -6 -2 -5 -13z"/>
<path d="M4622 5318 c3 -34 20 -42 26 -12 3 11 0 14 -8 9 -9 -5 -10 -1 -5 14
4 13 2 21 -5 21 -7 0 -10 -13 -8 -32z"/>
<path d="M4571 5324 c0 -11 3 -14 6 -6 3 7 2 16 -1 19 -3 4 -6 -2 -5 -13z"/>
<path d="M4550 5240 c-9 -6 -10 -10 -3 -10 6 0 15 5 18 10 8 12 4 12 -15 0z"/>
<path d="M4495 5100 c3 -5 10 -10 16 -10 5 0 9 5 9 10 0 6 -7 10 -16 10 -8 0
-12 -4 -9 -10z"/>
<path d="M4470 5060 c0 -5 5 -10 10 -10 6 0 10 5 10 10 0 6 -4 10 -10 10 -5 0
-10 -4 -10 -10z"/>
<path d="M4480 4989 c0 -5 5 -7 10 -4 6 3 10 8 10 11 0 2 -4 4 -10 4 -5 0 -10
-5 -10 -11z"/>
<path d="M4456 4945 c-3 -9 -6 -22 -5 -28 0 -7 5 -1 10 12 5 13 8 26 5 28 -2
2 -6 -3 -10 -12z"/>
<path d="M2741 4924 c0 -11 3 -14 6 -6 3 7 2 16 -1 19 -3 4 -6 -2 -5 -13z"/>
<path d="M4492 4840 c0 -14 2 -19 5 -12 2 6 2 18 0 25 -3 6 -5 1 -5 -13z"/>
<path d="M4491 4794 c-1 -6 6 -17 14 -24 12 -10 15 -9 15 4 0 10 -4 15 -9 12
-5 -4 -12 0 -14 6 -4 8 -6 9 -6 2z"/>
<path d="M2560 4760 c0 -5 5 -10 11 -10 5 0 7 5 4 10 -3 6 -8 10 -11 10 -2 0
-4 -4 -4 -10z"/>
<path d="M4467 4730 c-14 -17 -14 -20 -2 -20 18 0 18 -1 5 -34 -6 -17 -6 -26
0 -26 6 0 10 5 10 10 0 6 5 10 11 10 6 0 9 -9 6 -20 -3 -11 -1 -18 4 -14 5 3
9 12 9 20 0 10 7 13 25 8 15 -4 25 -2 25 5 0 6 -16 11 -35 11 -26 0 -33 3 -29
15 4 8 1 15 -6 15 -7 0 -9 8 -5 20 3 11 5 20 3 20 -2 0 -11 -9 -21 -20z"/>
<path d="M4370 4731 c0 -6 4 -13 10 -16 6 -3 7 1 4 9 -7 18 -14 21 -14 7z"/>
<path d="M4440 4625 c0 -8 5 -15 10 -15 6 0 10 7 10 15 0 8 -4 15 -10 15 -5 0
-10 -7 -10 -15z"/>
<path d="M4390 4610 c0 -5 7 -10 15 -10 8 0 15 5 15 10 0 6 -7 10 -15 10 -8 0
-15 -4 -15 -10z"/>
<path d="M2450 4412 c0 -22 5 -44 10 -47 7 -4 8 8 4 37 -9 57 -14 61 -14 10z"/>
<path d="M2512 4375 c0 -16 2 -22 5 -12 2 9 2 23 0 30 -3 6 -5 -1 -5 -18z"/>
<path d="M2490 4331 c0 -5 5 -13 10 -16 6 -3 10 -2 10 4 0 5 -4 13 -10 16 -5
3 -10 2 -10 -4z"/>
<path d="M2720 3606 c0 -2 8 -10 18 -17 15 -13 16 -12 3 4 -13 16 -21 21 -21
13z"/>
<path d="M3190 2995 c0 -3 9 -15 20 -27 11 -13 20 -16 20 -9 0 7 -6 19 -14 27
-15 14 -26 18 -26 9z"/>
<path d="M3275 2890 c3 -5 8 -10 11 -10 2 0 4 5 4 10 0 6 -5 10 -11 10 -5 0
-7 -4 -4 -10z"/>
<path d="M5650 10971 c0 -5 16 -19 35 -31 19 -12 35 -26 35 -31 0 -5 8 -9 19
-9 10 0 35 -11 55 -25 39 -27 46 -29 46 -17 0 8 -70 50 -84 50 -5 0 -13 7 -18
16 -11 19 -88 60 -88 47z"/>
<path d="M6100 10385 c0 -2 9 -19 20 -37 16 -26 20 -29 20 -13 -1 11 -7 28
-14 38 -12 16 -26 23 -26 12z"/>
<path d="M6261 9964 c0 -11 3 -14 6 -6 3 7 2 16 -1 19 -3 4 -6 -2 -5 -13z"/>
<path d="M6270 9861 c0 -46 15 -55 23 -14 3 16 -1 32 -9 40 -12 12 -14 9 -14
-26z"/>
<path d="M6326 9712 c-2 -4 -1 -14 5 -22 7 -12 9 -10 9 8 0 23 -5 28 -14 14z"/>
<path d="M6351 9614 c0 -11 3 -14 6 -6 3 7 2 16 -1 19 -3 4 -6 -2 -5 -13z"/>
<path d="M6310 9559 c0 -11 5 -17 10 -14 6 3 10 13 10 21 0 8 -4 14 -10 14 -5
0 -10 -9 -10 -21z"/>
<path d="M6561 9464 c0 -11 3 -14 6 -6 3 7 2 16 -1 19 -3 4 -6 -2 -5 -13z"/>
<path d="M1042 9410 c0 -14 2 -19 5 -12 2 6 2 18 0 25 -3 6 -5 1 -5 -13z"/>
<path d="M6561 9423 c0 -5 4 -17 9 -28 8 -18 9 -17 9 8 1 15 -3 27 -9 27 -5 0
-10 -3 -9 -7z"/>
<path d="M6572 9310 c0 -19 2 -27 5 -17 2 9 2 25 0 35 -3 9 -5 1 -5 -18z"/>
<path d="M6446 9041 c-4 -7 -5 -15 -2 -18 9 -9 19 4 14 18 -4 11 -6 11 -12 0z"/>
<path d="M970 8780 c0 -5 5 -10 11 -10 5 0 7 5 4 10 -3 6 -8 10 -11 10 -2 0
-4 -4 -4 -10z"/>
<path d="M6670 7080 c0 -5 5 -10 10 -10 6 0 10 5 10 10 0 6 -4 10 -10 10 -5 0
-10 -4 -10 -10z"/>
<path d="M140 5600 c0 -5 5 -10 11 -10 5 0 7 5 4 10 -3 6 -8 10 -11 10 -2 0
-4 -4 -4 -10z"/>
</g>
</svg>
